<mxfile host="app.diagrams.net" modified="2024-11-22T11:47:01.257Z" agent="Mozilla/5.0 (Windows NT 10.0; Win64; x64) AppleWebKit/537.36 (KHTML, like Gecko) Chrome/131.0.0.0 Safari/537.36" etag="28v4zP9sIP6B2d9l9McY" version="24.7.2" type="device">
  <diagram name="Page-1" id="OQkhbuTCegXhkYNn6MhJ">
    <mxGraphModel dx="1434" dy="1872" grid="1" gridSize="10" guides="1" tooltips="1" connect="1" arrows="1" fold="1" page="1" pageScale="1" pageWidth="850" pageHeight="1100" math="0" shadow="0">
      <root>
        <mxCell id="0" />
        <mxCell id="1" parent="0" />
        <mxCell id="2" value="External Resources" style="whiteSpace=wrap;strokeWidth=2;verticalAlign=top;" parent="1" vertex="1">
          <mxGeometry x="320" y="70" width="170" height="102.36" as="geometry" />
        </mxCell>
        <mxCell id="3" value="themealdb" style="rounded=1;absoluteArcSize=1;arcSize=14;whiteSpace=wrap;strokeWidth=2;" parent="1" vertex="1">
          <mxGeometry x="340" y="112.36" width="129" height="34" as="geometry" />
        </mxCell>
        <mxCell id="5" value="GCP" style="whiteSpace=wrap;strokeWidth=2;verticalAlign=top;" parent="1" vertex="1">
          <mxGeometry x="560" y="-49" width="250" height="209" as="geometry" />
        </mxCell>
        <mxCell id="6" value="GCP Cloud Run" style="whiteSpace=wrap;strokeWidth=2;" parent="5" vertex="1">
          <mxGeometry x="61.7136820083682" y="38.99665119760479" width="126.56903765690376" height="42.550898203592816" as="geometry" />
        </mxCell>
        <mxCell id="7" value="FastAPI Docker Image" style="whiteSpace=wrap;strokeWidth=2;" parent="5" vertex="1">
          <mxGeometry x="52.489999999999995" y="143.49714285714288" width="145.02" height="42.55389285714286" as="geometry" />
        </mxCell>
        <mxCell id="8" value="" style="curved=1;startArrow=none;endArrow=block;exitX=0.5;exitY=1;entryX=0.23;entryY=-4.1;exitDx=0;exitDy=0;" parent="5" source="6" target="7" edge="1">
          <mxGeometry relative="1" as="geometry">
            <Array as="points">
              <mxPoint x="81.58995815899581" y="124.27772455089823" />
            </Array>
          </mxGeometry>
        </mxCell>
        <mxCell id="9" value="" style="curved=1;startArrow=none;endArrow=block;exitX=0.47;exitY=-4.1;entryX=0.602;entryY=0.992;entryDx=0;entryDy=0;entryPerimeter=0;" parent="5" source="7" target="6" edge="1">
          <mxGeometry relative="1" as="geometry">
            <Array as="points">
              <mxPoint x="185.14644351464435" y="124.27772455089823" />
            </Array>
          </mxGeometry>
        </mxCell>
        <mxCell id="10" value="Backend" style="whiteSpace=wrap;strokeWidth=2;verticalAlign=top;" parent="1" vertex="1">
          <mxGeometry x="310" y="-293" width="290" height="216" as="geometry" />
        </mxCell>
        <mxCell id="28" value="" style="curved=1;startArrow=classic;endArrow=block;entryX=1;entryY=0.25;entryDx=0;entryDy=0;strokeColor=default;startFill=1;" parent="1" source="dwARR20L6FCNaaWJkSE--48" edge="1">
          <mxGeometry relative="1" as="geometry">
            <Array as="points" />
            <mxPoint x="333.5" y="-144" as="sourcePoint" />
            <mxPoint x="230.50000000000023" y="-6.5" as="targetPoint" />
          </mxGeometry>
        </mxCell>
        <mxCell id="dwARR20L6FCNaaWJkSE--50" style="edgeStyle=orthogonalEdgeStyle;rounded=0;orthogonalLoop=1;jettySize=auto;html=1;exitX=0.5;exitY=1;exitDx=0;exitDy=0;entryX=0;entryY=0.5;entryDx=0;entryDy=0;startArrow=classic;startFill=1;" parent="1" source="dwARR20L6FCNaaWJkSE--41" target="dwARR20L6FCNaaWJkSE--48" edge="1">
          <mxGeometry relative="1" as="geometry" />
        </mxCell>
        <mxCell id="dwARR20L6FCNaaWJkSE--41" value="" style="shape=image;verticalLabelPosition=bottom;labelBackgroundColor=default;verticalAlign=top;aspect=fixed;imageAspect=0;image=data:image/png,iVBORw0KGgoAAAANSUhEUgAAAgAAAAIACAYAAAD0eNT6AABVH0lEQVR42uzIIUqgUQBF4QvTLMMwDMPEcRWCGzDYxQ0IVqPJJG7AYDIrCHarwWAy/O8pGFyE+VpEbFbF74NTTgAAAAAAAAAAAAAAAAAAAAAAAAAAAAAAAAAAAAAAAAAAAAAAAAAAAAAAAAAAAAAAAAAAAAAAAAAAAAAAAAAAAAAAAAAAAAAAAAAAAAAAAAAAAAAAAOAbu+1K7vors/9z39W3lv7ObVcC8CW1P3Lf1cxuZHY3owcZPc7seWYvMnr1rsvXf5LZw8zuZXYrS9ey9F/gK3rsz8yuZ3Qno0cZPcvoTWafMvuc2X7Qc2afMnqd2dOM7mfpZu76NwCfxkP/ZOl2Zl/YtX+WqsMwjONXaiGEBQ1NQURLBREuCuEsBLVGQ9AWOQQFQgQRQS3RdLYEfQHR0p8X4BKRIhJh577PwdIlSociI9Dq8G2LIAnTc45Pen3g+w4u7sPh+VUUvFCwrIQmtaRgQsmYkiuq0adxumRWCuhQjRMKLit5qGROCS1sXsmYkrOaYZ/MzNqqzmElNxVMKmgooY19VTKu5LaSU3rDXpm1C3SqRr+CYSVPlHxUwib1TclT1TinObplZtYSM+xSlQtKniuhmIKGkikFNxQcl1mzjdOlKoNKRhQsKqG4gkUld/x0ZmbN85LdqnJdyXslFF8wq+SekgFBh8zWAzqVDCipKPlQ7N7/bEXJiL8XMLON/etJhv6bH/7VChaU3FeNfpmtRY0+BaMKPhW767UUfFZy1d/MmNm/qdOrYLLY47aeglByTbPsl9nvgh4FlxRMF7vf9RZMq06vzMz+aoqdCu4q+FHsQdtowbKCB6oy6CeCba7OMSUVJV+K3Wtz+q7glvduZqtLDimYKPSAtap5BcOqs0e2PcAOVTmt4Fmhm2xljxX0yMzsl+CkgoVCj1Y7WlJSUZ0Dsq0JOhScUTJV6Abb1Su95qDMzJScV7JS6LHajOeBUSVHZFvDHN1KhhS8LXZ37e+dahyVmW1jwUUFjUKP1OYVNBQ80k/27jzajqrM+/gvCQSZEVAEUSCAoDKoAUSGRiCCAyDjSyuDIIPKFEEZFEHE7oZuQY3MjSBiizaCilFBpmhDO2AaQzi3nqcOhEgYZVSGAIHk+65111nYDQm5N6ldtevc57PW708N51bV3rt27f3sgvcptNNgx89xLdvCV+sOmaibEcJI5XxGxrxsG6h8MlnOJgrtAGNkHCTn3kzvp7yKBxW8TSGEEcTZN978h11t8Ep1WE8hXyUTZEzL9j7KMcYs3cVbFEIYAZwd4pv/ImeOjPPU4U0K+XC2HqGr+qvK/2gWSyuE0MeMteU8lmkj1KY8I+dfNJOVFJozwFpyrs70HmlXjO8phNCnZvK62AJVeR6XMTEKrNSsy1IyTpbzbKb3RTtjHK0QQh8yzs224Wl/fqeC9yik5+wgo8j0Pmh3jOdjwWsI/abgA7Hiv5atg5eryxsUqlfyZhmXZ3v9+yedwdnCEEIfmMlKch7ItLHpvxiPquSw+CxQ6fkUX4zp/hpjfEUhhD7gnJNJozJbxoxX5J6+PYjFuC0+CyymknfJ+FO213h4eVjGrTJ+3HsmT5HxqV4xrolyTpRzqpxLZNwk456GK2JuoBBCixnjGzrZ70E5l6ngEzK2Wui2uVksLWNtFWwp4yAZZ8u4UcYjmTbmQ82Lcv5ZXZZSGLoOY2WcLmdOptd1KJ39D+WcKGPnRd422mVNGQfLuaL2GRDjJoUQWsy4teY3/PNVsqlglKpirKGCj8m4uMX13DtyNldYOGMzOXdmeh0XlKflTJYxUQUbCUapagWryDml1kO7jN0UQmghZ/cazxo/U3fzRtXBWUfOoXImt6yg0eDfKRZYvcY2VeMMOS9mev3m1+lfIWf3Wq/pNJaV8e81DQAKTWEJhRBaZApL1LRVqlTJFmrKTFbqfTL4RWumi41CBVsq/J0xviVb++bIuUoFezZeOc/ZvaaiXocohNAixsdr6Mh+Mvg2kosOK6vkMDl/zLTzeDm9dRlnjfjyqzBKxsTsZ3KM+2WcmV3NfGdDOQ8m/u0zYhYghLaAUXKmyyFhrhrcnpUrY7yci7LfYWAUKtlUI9HdvFHGLzO+NnNl3CBnH8EY5crZsIZtvvsrhNACBbskbhh/nHXn/7/NYEUVHJX19LIxW84RGklKPpLtDg9jtoxzNcBaagtj48S7BDqCUQohZM64Kek3f2N5tQ2MkrGrnN9lPBD4qQpWUT8bXOjHmZkeRf20nEky1lAbpf/st6NCCBlzNkxW8td4ri+mq51t5EzOdBBwnwq2Uz/q8g4Zd2T4N39Exsl9cbKjcXHSAWoIIWPOJDkkSclh6iclW8j4aZYLBI2v9NXCK2ffDNdjPC3jNHVYTv1isKAW9yS7Lzu8VSGEDHUYK+fxVKfd9e03wIL3yfivDAcCt7S+wR3cjsqZGW7lu2iwOl8/Sln/w/iSQggZKtkj2Wroki3U70omZFh3/jEV7KQ26vKG3noUMspkDbC++p3xi0RtwT19+yIQQqs5V8khQS7TSAFjZBwk597MPgkc36qGt2RbOQ9m9Df8w4gYxKqn4G0JC2NtoxBCPnrlQZ9LdJjNOhppBler86XMjqC9shXfq43DM6rK+ISMiVnv40/F+J4cEuQshRAyYuyW6M3pBxrJuqwp43I5ZBJXyduVo6ksI+OHmbzxz5NziZxVNVI5myTaEdRVCCEjzoUpGtIRNW36WpwdZZgcMshTKtlDOSlYXcZtmXT+02RspSAZ18qh6mQ7CA1hRDJmJXjQpyi88rPAaTKey6RM7WmC0WpawXtk3J9JRcXjRuR0/4I4O8ghQU5QCKF5vTKgJMgBCq/WZV05U+SQQX7W6LqAgj3lPCOHhvNbORsqzK8C5owEg61bFULIgHNSggb12VYsOGsKjOotdntKDg1neiP1AoyJMuZm8NZ/Yrz1vwbj9CQzUNNZTSGEhhm3xOK/hhhry7hRDg3nQRnjVYcuS8m5LIdCSSNiT38FWwJjhjCEfjSLpZNsuTJ2VRjO8ctHZFDq9mkV7KKUnFWHM+BMdiaF81nBaIWhMf6Q4FpcqBBCg4ytknQkHcYqDI+zjpybMygadLRSKBknp2z49w3I2FhheJzPJrgWdyiEMF/tfbCdyQqLszZgopwX5NBgLqr0MCFj48ZX+huXDxa8CsNX8vYk6wBmsKJCCA1xvp/gwT5GYfEYm8m5Sw4N5jp1WaGiGgh/a7Dj/6tK/lFhsSQpb13wAYUQGuKUUeQjU11W6A3QaCzG7Yt16p1zQKNlfY3fj8hS1CkYFye4RqcqhNCA6by+8lKfxiyFahkHNbpA0JihDust0vZSY16DhY5Oj+19FXL2SXCdrlUIoQEFOyVofK9QSLMVy7hdDg3lYXV5t4YCRsv5VoMDlidVsItCtTqsLGNu1deqVadUhtA3Cr6QoPH9nELK/fMXNNix/k3G+xd6HLJzSaN1/Lusq5BEkvMs7uItCiHUzPlOgkU92ymk5ewvY3ZDHezzcvbR/HQYK+dHcmgo349V/oPadURwyQSFEF6tVRUAjbnqsoJCesZmMmY1Viug5LD5HOV7rRwayItyTlSQ1Mptw0cqhFAz56GKO4ZCoTa9qno3NHhe/rGSpBms2GB1vwflbK1QD2ebBNfwHIUQatRhuQQrtH+kUK8pLCHj7Aa/uZ8u4/cN/dt3aIC1FOozlWV6My5UmF8phFCjkk0TNMhnKDTD2bd3rC4jJNfEaZMNMYqKr+W9CiHUp3cOOxXnUIXmlGwq475MO+wqMykO8mmQ87PKPydNZRmFEGrinJBgBmB7hWYZa8j5n0w77sXNHDmHKDTL+HqCnQCbKoRQE2dS7OftU9NYVs41mXbii5rH5eyg0DznyAQDgA8rhFAT54qqz1iPadmMwCgZp2XamQ8vxt0aYH2FPDgfTHCND1YIoSbO9RU/wKaQH+dIGS9l27kvPH/UdFZTyMcA6ycoIPYFhRBqYkyTQ4X5tUKeCnaS8ddMO/jXynWx0j9DU1kywaDymwoh1CPBavGrFfLVth0CxncHO5qQJ+fhiq/3DxRCqEevpjsV5kKFvBlryJmebaf/cpgUJ8Rlzrmz4ms+RSGEGhjLJ2i0/1khf86qMv6Q6Vv/3KgL3xLOzVFGPIQ2ctZJ0IAfq9AOHZaT86vMOv+XVPAJhXZwrpRDhXlCIYQaFGyUoBHfX6E9OoztbQUlg7yggj0V2sM4r+rZn/jsE0IdjPEJtvHsotAuMFrOt+TQYJ5VwU4K7ZKixkSXpRRCSMzZOkElrwkK7dRUwSDjSRlbKbRPwVFyqDTTeb1CCIk5OyYYAGyr0E4wSsZtDQwAjlZoJ+eQBLOIqyuEkFjJhxMMAN6r0E7Gv8qhgTwlZ3OF9jH2S/AJYF2FECS17SjgOM2rnYyjG179/6iMDRTaxdhbDpVmgHcqhJCY8fEEjfmGCu3i7C9jXgZbAO+J6d+WMXZNcB9sphBCYsZBCWYAxim0x2ADzosZ1QG4XV1WUGiHgp1iHVEIbVTwiQTf79ZUaIeSbWXMzrAS4I3qMFYhfyXbJrj+OyuEoPYt4DHWVshfwUYynsz0DABk/EAwWiFvJVvEACCENnL2TbCAZ32FvJW8WcasbDv/XmScp5A3Z/ME135HhRDUvl0AsYI3b8byMv6Ubaf/6hynkC9jqwR1ALZTCKGFK3hL3qWQp6ksKee6TDv6BdeGL9lDIU8F2yW47lsrhJCY8yE5VJko6JIx54JsO/rXijFbBVsq5KdkQtXXO651CG19eGP0nifny9l28EPLQxpgLYW8OB+MOgAhtJHx/gQP7/sV8mJ8XMa8TDv2occY0ExWUhiy+IwYQpi/gi0TPLwfUchG78CnOdl26sPPrwbXMoQ8lOyR4BPARgohJOZsmKCB3l8hD8YGcp6QQ+rUOsNgfFshD87/S/AS8XaFEBIrWD1BA32kQvM6rCynlEMt6XKCjN/UOAj4vMIQtPA44A5vVQghsVksnaBh/pJCg3rb/Ywba+yMT5ckdVmhthoDxlwV7KLQLOPzVV/bOAsihLoYz8uhwnxNYWH6abvfhfrfjDXkzJRDDXkqvhc3zPmnigd2LwlGKYRQA+MvFT/AFys0xzmuxjf/nwjG6JU6rCfjL7UdIeysqtAM49yKr+njCiHUxOnKocJcpdAM54MyXpJDDblZXZZayCExz9Q0CPhNnB7YEOf7FV/LGQoh1MS4rfKjXEP9jI3lPFXbmf3G8loYY7caByTnKNTP+Hnl91YIoSbO9XKoMHcq1KvDyjLurqnzv19d1tRQlRxW4yeJTyvUy/ltxdfwJoUQauJcEd/wWgzGyLi2pg72b3I20XAZp8uhhsxRyT8o1McoKr6GVyuEUBPnLDlUmqkso1AP42w51JAXZGyvRQGjZHxPDjXkYXVZU6EezsMVX79LFUJQTwtXjXdYTyE9Y78aq/ztr8XRYaycm2v67/29uiylkFDvmhpzK752X1cIoSYl/yiHKhPTsDUoeZecZ2vqUL+oKhSs8vKuk/S5SCEtY+2o8BhCm5X8Q4LDPD6mkEivIzXuaWXd/S7rynhEDslTcphCOs7W0XaE0GYd1otRfItMZUk5v67t5L0pLKGqlWwr4/laFgU6Wyu05yCggu0UQqjJVJZJMAD4hkIazrdqevMvkp69X3JgLScIGvdpOqspVM85NtYPhdB2xpMVN7o/VmjHeo3553ENsL5SM86o6ff8enAmI+S/A2UWSyuEUCNjQA4VZrpCirP9n6pl2tzYXnWA0XKukcP8EodUZc74YcXX6DGFEOpVeSEZY3ac6FWhDsvJKGqa+v+U6mQsL6dT01bGjypUx7il4mt0h0IINXPOkUOViWIsFYFRcn7U12/Jxtq17AwwnlTJOIVqOPdWfH2uVQihZs5nEzS271dYfMbna3rz/6VgjJpSsq2cF2r4ndPiO3MFZrG0jLlxlHgIbWfsGnuw89Or0fCiHBLnTnVYTk1zjpBDDblAYfEUbJRgcHaaQgg1czZM0Mj+m8Kim85qch6QQ+I8kdXWK+eCmmY8Pq6w6Iy9ElyX/RVCqFmXpWS8FFsBMzGFJWT8poZO8CUZOysnU1mylt/uPKMu71BYNM5JCWYN36sQQgOcP8uhwnQUFo3zT3KoIScoRwWry3lQDonTiZMrF5FzSYIiQCsrhNAA40Y5VJgX40S2RWBs35uNIXGuznqrZsH7FrQoMBaeDUnbtgA+ohBCQ5wLE0zpvUth6O7mjbW8+Rp3aBrLKnfOkTWtB9hPYXiMv1R8DW5VCKEhxucSDAAOVBhOVbzraynz22VdtYVzWQ0DgL+16m/StBmsmOA6XKoQQkMKdkrwUJ+lMDTOKbUs+iuZoDaZyetk3CaHxPmjOoxVWDhn8wT35hcVQmhGb+EVFed6hSHt96/pu/9JaqMB1pLx6Ct/TwxYG+IckmAAsLdCCK+ldd/1YmHPwnR5g4z75ZA4k7Ne9Lcwzo7JB0nGPBm7KjRxJPUmCiE0yLhJDlUmzmJfSJ1/45c1TP3fPXi2f9s5X63hb/WIjDUUFqjyOg3GvNiOGULTjG/IodIUfEBhIWcwJIzxnAreo34AY3qDVJLGuEkwWmFBg9a/yqHC3KUQQsOMT46YYjNNG+CdMmbX0JkdrH4yndVq2ip5vMKrlYyTQ8W5SiGEIWjb6t54uBe0sv0OOSTOhepHBdslPyTJeD7qWMxHyR5yqDinKITQsFksnWCh1b0K/5dxfg1vsH8avJ4zWHHwrblk3GCHVrClSiYMxthLzj5y9pdxeC/HyzlRzqkyzpxPzpdz0TBy4fz+f3rbHk+UcfzL/7azv5x9ZOylkgm9bCFnE5WM6y2YXL43CPhCDX/DIo4OfgXjNDlUmVh4GUIunDLBOoDVFf5+9LIxL/lqdme2HPo4z9RSKtg5R+HvjJ8kOAPgrQohZMD4YYzwE51yV7KpnMcz7VAjCxhMxdHBSQ8Ne0whhEw4xyVoRE9XP+vwpt5U9UflHDH4e51LZPxcxjQ5D8mYl20nFxlK5si4T8bv5VzT+xRyqpxDVfIRFWykLiuon03n9ZXfx8ZNCiFkomTbBI3ndWqrmbxOA6zfK0RzcO8b6KW90xO7Mp7LtMOKNJDeFrk75UyWcZ6ck2TsJ2cb3cVbWr290Ng5wd/rbIUQMjGNZRMsBHw86yp0M3mdSsbJ2LW3AO4iGTfImCFjbradTaSNeaF3X93QWyR5Ym/h4/jsT2g0viKHinOAQgj5SLJFzdhATeowtrf3fm8ZJ8v5Dzm/k/FIph1FZKTFmCvnzzJulHGeCo5SyYTBmYMMJDmt0thYIYSMGN9O0MAdqjrMZCUVbCnjkzL+Vc41crpyXsy24Y9EFp6n5UyV830ZJ8vYWyVv1xSWUB1gtIwnK6+1MJUlFULIiPGpBCP976pCgw1fb9q+913+ShkDsdguMsIyR8ZA7/4/TcauKhmXpHKlQ8X5rUIImeny7gQP+8zFWX3cK1zzeRnflXG7nBcybZAjkeZjPCrjxt75HgeoyzsEY7SonEPj+OUQRoKpLCnnWTlUmi5ramG6rCBnGxkTZVweb/WRSGV5Wsatciap5EAN8M4hDwqcSxIMUvZSCCFDzs0JKgJ+7FWr752tZXyuV4DorujsI5HaBwW3yDhbxl4y1qitQmjJmxVCWATt3PJzmYxde/Xgb4099JFIlnlQzmQ5J/Zm49ZO8PY/SyGETJVMyLRxikQidcaSrLe5UiGETE1j2dg6F4lEEuWzCiFkzLgt08YjEom0OSXvVQghY8bZ2TYgkUikrXl6sI5HCCFjA+ybaQMSiUTaGuNahRAyVDKutwf/hii2E4lEEuQBGV+RsVnWh4SF0PdgtIzxvXK6UzNtMCKRSD/GeETG5b0TEZdXCCGxqSyjgj3lfCdOw4u85mEtzhPzyWMyZiw0zkML+N8/k+1vjjQXY7acyTI+qQ4rK4RQYafv7CPnSjnPZtsIRIaTp2TMkjNdxn/J+VmvouJFMr4u51/knKiCo3q13PdRyYfl7CBj/GAK3qaScYNHzk7n9YOB0aqLsfzgv9nlDSoZNxhjYxnj5WzdOwNibzn7yzhcxvFyTukVkzpfzqVyftT7ZDW1V03y0djC2vrMkXOdnENVsIpCCNHpj6A8K+NMOZ+RsXevIxyvLusONogwRmHhtSxK3qwu75CxlQp2UcEneodK3ZfpdY+8Oi/KuV7G4YMDxRDCAnQYK2f36PRbHmM3hXScdeQ8le31j8w/xksyrpWx3+ALTghBUsGWMs6V81i2D29kaDG+rZCe8els74HIUD+BfVclEwSjFcKIMsBaMr4kxzN9QNucF+S4jF/I+ZaMiSrYRcZFckiYe9VlBYX0YJScXyUezN0gY2c5n5FzloyfyLgjFkJWHON+Of8mY2OF0Le6rCDjYDlTZMzN9oFsR16QMSDnKhlnquQwOTtogLXm+0ZRsFHS2gjGPBk7K9Snw1uTfwoo2FPz0+FNMraSc4Ccr8q5UsYdMp7P9HlpR4xpMo7RTFZSCH2hy7tl/Hu8OSxSHusdP3yxjONl7KoO6w2rHCmMlvPfiRuuixXq53wmeeGbGaw4rHutZJycD8k5Vs6FcqbElt1h51k5l8a5A6GdZvI6lRwo53eZPmC55RkZf+h19MfI2UHOqqqCcXTqTmJwO1yoH4yScUPiwd35qsJ0Vusd1X1cbwvkVBmzM30e84lxu4xPRbGhkL8O68n5WizoW3B6hWaukvNlFeypDuslWwhkrCHjr4l/00cVGtPbFfB0wvt1rpxtlAKMUcHbZOwt43QZP5fzULbPbrN5Ss4FKtlUIWQDRsvYTc518W3/Fd/Fnbt6BW5OkLNj7W/Kxk8T/87vKDTPOTbxvTygDmNVF2MNFewi58tyrpFxf7bPeTOZooJd4jyC0JwuS8k5VIZl+pDUG+M+Gf8p43Mytu99O22OsVdM/Y8QMFrObxPf3yerQb1PCB+R81UZN0YtBJBRqOSwwU+uIdTCWF7GxKhIBir5nkoOVMk4ZaRXSfHPiX//7gr5MDaQ8VzKevdZ3ecwRgO8s7fWaJKcx7NtJ+o5mOhMFayuEJLosqacs2LkXcFbUWrG2Yl/+38o5Mc5KfH9/nPlaApLyHki23ai3kOJLlCXdRVCJZwN5VwWZ+zPN1OVG2eTpAfKGI9GXfNMTWEJGbcnnvXaQ7lxdsy0fWjyDILvxEAgLO7q4stkvJTpTZ5L1lEuYFTyPf/OAQr5cjZP+swas9RhOeXEuTDTtiGHgcClKhmnEIYx1T8pqnoNMcYxyoVzaOLfe3OsPG4B55tySJivKRcwOrYODmkr55UaYH2FsMBVts43ZTyX7Y28uFuZCh5IsiUnBwWryHg05ffFmFJsiWksK+OelG+W2exHN7ZP8Rv79AVojpxLBstIhzBoJivJOKMPS/W+0DvQ5JiXp8Cc41Ic85nFN3Hn0sQDqOMV2sP5UOL74ZYsZoOMc1McbNUbRO3WK2P+QKZt3KIP5o0z4vCukQzGyPi0jEezvVEXZYGacbmcfeZ3c/fqlJMgh6hJzjYy5iUtRzqFJRTaxfjPxM/bwWoSjJbzYILfdd6r1tYUvEfOqXL+KGNetm3gcLcPOkfEsz3SGNvLuCPbG3P4x2lOUsm2gjFaGGOaHCrO9WoKjEl6LY2XZIxXaJ8Ob0q8Pe4xFayipjjbJPpdOw7hJMZjZdzaF9VPDZOxm0KfKxkn5+psb8RhVN3rLXTaeth19I3TknSSd/NGNaHgKDkkzFkK7WUcLoeEmaSmOJNSzCIO643YWKP3DP66D3ZMTVGXdyv0mQ7LyTij1Qv8jPtlfEPGVov17bFk00T/fZ9W3ZxV01ZA630LDe0Fo2TcknRBoLGx6gajZdyf09HWvYXUR8j572zb0f/P3plH21UVafx7CTIIqCgqg6AgKFMQCDiRVltRUUAjGgWZFCQtokZFjAgdoi0ICGqiqAFHsEURZAijKEEFQYiSDvedqnOTEBMkhCGMCRBC8vVae50lL88M7+Xduqf2vfVb61v+4yL37b1P7XP2rvpqIB8zyu9E98FOISUDcZ7bBbcGVS8sF0N4UEvvqYRzOqIaQPnD6PQXrI1kmat8pqMSAu2y/9+NFlBdE4yHsuk2vq5ZC5LNcpApM7kZlFOcLq411qxWd2tjIdw0G6tc4XKU3Brtosk9jQ1frkXQOSjPNn52P4x2IjzfYM0/YtL1UDiy8lZ5wG3cXZ2Ef0gtm4OMKHhohotNITy5LTWqyn2zNgUieyD8Y9c0fgladQ14j6VDYLuui9ImbXP19RPzDqrCD0F5fWbJg0tSn4npfB4CxxTcMrMkv6XpiL/kfm09QiR7jLrl3YJ2oDzCdF4KnoSg87BvEf11tAPlaKM+BwegD+aOq8KJEN7vNDavSneh5B4IHCL8OISPOl04/TWv+trfAmsgu455whXmJxjCTY2NScr0pRJ0JsJrLHN2KrfI/PwNhI/Wse7TaUbJQ6CcloW/gPApCE8AOQxB/STDG+Uv3S6Ylf2or0uJZeRw1E3J1xv9reNhifBMwzlakZKrgs6lyVcbVwNdCfsX4CUGa//nqJmq8+qkTFquT0MvX4mgPqrOX7OdLhBWWgzlZDS4AzxB9hhVAzRgRS93NG3LLLwQQeej/G9Uc+46k35VlDzS6HfvDy/M4QuT9bZwvtOYziThYyh4FIL2Um1eX3Tdo194fwo0BV8Crwi/YXSHvhcsEF5mOF+PpDrmoPNpcgPj8rSGmb2s8jqLWOXRDjcl3Qk/CuV0t3E+iZeml5bAnuQ4J7zW6UIglLOgPA7zuRG8U3IPo830Wwab/9u6pq1xYE/BdxrHgU8ZPK9bG5W+fhfeSc8/r3ScJzALyt0R2JG+LIX3OF0Ad0D4oeySQ4SF+y8KcpjpV4CwN0p8uhDllYbxYBEafHGL499JRuv/zcgF4Qgof+O0jHBJqlAKbEp4nLbsvQvKMSB7kCPCrxmNy3vQKpTHGJf9vQtB91Fye9OEQOE5aCVCMfid/8gydvVyVwgvcNp/YEqqbghaVrM+3t0bn7BAySOz++LvT5O7GI3PRS3Mel5gOJe/QbfR4PrJKbPk9imQpiZZ3DyLa6tWo/y6pc9HSlxtBQXfZPQbT0fONLmL0xeB6RC+CsEQmMsNHZb4NaE8PPuNvy/Kv1m46bUkMUZ5mqXjX8c+pORwCEdW3fDOhvCq6p7ymQE0Q5mb3NqUk6vmLqM69otmPjeyMcWqJLwcLcDM1rzgbugEmtzFoQncgjAOGkpnKeFtjiZzIUoem+62Ow3hOKPgdzSGQKqzFT5pOKcT0Ek0uEOaS+HlED5iUM56PZTjU0fJTkL5YePY8fahvqQYmZzNRKeRbM55q6dSwTT/wSCYxW2gLB3Z9U7q6DKP2XyZSbc04c0YCsKLTN0Yp/P5yJ25fFG6ihLe0NYMaWEvhBM7xgxFeaPhWM0YkvmX8KNGv+uL6FSEB0E5y80eUvBQBANA+CpH5j5Tu6YpjPAqI3/xnbEuFHyj6YZW8GDkTHJN488gfLr2/unCy5OzZM4U3A3KZWbjVPLYIcz17wx+07JkRd7JJB8BjvXQb6ByGT0RwepJm0Xl816z/oaSb0E3UfIQo7H8JtYF4Z8NH8ZrkCvK3Z0mPbFqY30QckU52XB87ksdCQeLcjuTBGjhVegWGnwxlFNcJJILz8yy6sKckns4eFNbDOXnQQ5HtzGXG5rcMwrvH3SNvXJ0FpnZ/bEPYpOc1j/319S0ceXGTG4G5UOGwX+imyoF4YfQbRR8E4QzHLwEfD9eAvoiHAnlwzVPyrUdmxE+UJQ/MTr+/MCgsteVDcO5/iZyguyp7vgfdLrZr6nCYmJ6scwJ4WcNx+WJ1LJ8gKSEY5sT0UVd2/EyjSm/MNCGQxGHrGlwh1q//IUPQHgYAqROeErWetxY8tis3NlgnAwrvNntJj/AZMGsSs3SBmH6AvrD2k/ChN9Dt9PkKxyUDZ6Krib5+tea8PdL18162kxluTvXIlEsPXADK3e6Jyt/ditK7gflQrcb++B7qI9DLpQ8wHA8lg04MVZ4tdFv2AcBEgUPrfn0+QvoSqbz+VDeWlttpnAsgn9HearRmJ+MtSE82dK5MQu/f3IYhGc6bnoypHbL2VwJ2DYcu2JAX6jCZ01OZIKVSNUQyqk1Vgd8El1FKs/gtXVlKmeZoGRIf/Mdo6zju9fonqjcHFUSovveBJYWvcKL3G7grdFNWXhq9HJX07LAgm/FmhBOjNr/NkL2VK6XS2rYk5ZDOQZdg/LHNQSeZVBO6MoM/0FSOb7RQPtjdSi/Y/iA/R7emcGNnbe5bqXuSq1tvSM813BN3g6yZw2JsPMsKmDStWuwegq+BsK/1pE02x1XM8Kj67Dx7bq6fp/WqFesrtbZ0NBmWfqa84xwUwhvc7pZ20g4x/1LQCq95CJDc6BDsCqE7zP6Ny9GsFZShYTw+zU8F/e6fyZa4La1pM2B5u8dY1eaaNMDoHzIJBmwwW3RH+GFhmvgB/BMg+tDeZ3bjdpWDfdVGcovWL4Epflv1wlcwXciGDjCw2rYr/7amY230hEni3Zn+XeE37shNRzJ/0//u1ZDc5snXNudksMg/LXTzbk9Et6WYoNXGlzf2FP++H7Pw44mCaDCuzuqg2m7KPm6GirVvoOOQ3hhW/3JlZ9DMKTTGjNL1L7Z+MLfmjqveUb4Lbcbczsl/K1rZzTlRwz/9vvTFRAqlJOM/p2vIFh3h0jhNW1+Jj6IjkH48XbWHCfnuWDoKO8wmqcx/3KAFK4wM3hq8gXwSsEDO7LUb931eXiF7IHyFihpujk3uIlRJcwyCLdCMFSDqCltfB4eSq6R2VNwyzYaLTwR91wtRPhfRvN0IwAY330fD680uC2Ui5xuxHXpmeTV7pWSbzF8AXikSjg8zui/fzmC1iAc18YX9+tdn4wNCOHlbRqsBem+JmgZ1RfJYybz1csjDAPq3W4TaaZxva7L+B+45rr2CFBeYbhmz4ByplG1wQEIWkfBo6B8pk0n2h9HtlTlLLDXvK7p2//v5FoLbdn2+SPwivILTjdfL5oEryh3MjQHesoqNob3iZFddFW6bCrhg3na1afsWZawH6D704MZ2NDkLk43itXpDrfHZg1uAeGjTsfNhaq+EXvCK8ofuB27VangSQhsUO7fppeAHyE7hCe0JVFCOAKBKZl1pHsHvCL8ldMx8yXh7W5L1lIDMz7mduz6Svh0OP+15ZR7qbVVsOuX4tU4mz0I+4Y+eyOwR3m42yC3sq6DV5T7Oh0zn/Lcols5we249ZXwAgTmpKoz5TLzhMBsEJ5ifkwofDeCPphbYz7oNtBVXbVQ8vXwivAat2PnUcLC7SnADG4M5X1ux66S6+eh01B+qqtPN/s9HA9HD+UOQ3mW20CXxEvglZJ7RM3/OqjgwfBKwU+7HbfKAh1BP7J1T2WlaXBPwU/HsVYHUnJ7CJc7DXbLodwdXlFe4naj8CzhnW4TOlNLc852PHYfQ9BeyGHmZe/CN8Mt5DDjzP/pmMsNEdSC23a1wgvhFeFWED7rdqPwLs8Bz29uzMPRA6UmhJtCOasrTzqhfLtlRmvypw/qo+QBLh3kmnw1vKL8ktNNIhf57eZIDoPwTocvTWciqA/hSFSVAd1l6yz8ueGiPhFBrVQnPE1nAW8KPKOc6XRjzUUPpyRUrwgPcuejoNwOQb0Iv9Jd3g7T+XwoFxv90X8JNysnCD/jKNg9hSZfAa8U3MvpppqXvHdG8+WTcSmC2qlOh/5s9DwI3KF8f5ggdAHCTd242Qm/Dc8IJ7rdVPPST+EZ5ShHY7UvAh+UfJ1V/o+/63Dh+UYL+hcIBkn25S4D0WL3LmfCPzrdUPOScD6848Pn4Q4EvhCeZzTXp8IVynkWiX9xn+WQBndwUBJ4Fjwznc+H8Gm3m2puanAHeKbJPSFcEe6JwUrM5MuNrKP/Ajf08pVdlwHc7Sin1hjslrj/+i+5n9vNNEcJx8I7wt/WOEb3um2B3e0IzzSpfmpwE7hAeJjFoo67f8fUu8GdDe8UPMntZpqjhOfDO73cFcLl0fUvWAnhq0xyAQq+Cy5QfjPus7oQ5cw6Mv/91sH2Qfkzt5tpjhL+CTkg/HUNY/Nknj3juwjlFQZzPx4DI8sEmOMR+Eb5iRqC3TnIAeWtbjfTHCW8HzlQcucanB9/iMA3wvcZzPsv4QLhnJb/cb3cEYFvmtwAygVt/dJpcAvkgHKR2800V83kZsgB5S/a2QcjvXQEvkkWwVzW8l4ZtUP2GGQ7L0CQB8JTou6/H02+wO0mmrNyyQlqcAdUwd5cwssQ5IHylhbP/YOoHeXmBov6VwjyoMEXQ/lEW+7+S26NHGjyFW430ZxV8i3IBeVPu75ZUrAyytNbPPcrMJ8boVZ6uaPBov4GgnxQfhdKGmsycqHkzm430ZxV8EDkQiqN5lLjzf9mBPkg/KTBGtgKtaLc3WBxfwFBPpTc3jjxaSlmcRvkgnIft5tozip4KHKickc1k/B9CPJBObrzDLKEexss7I8hyAvh5YaB7ufICeHb3G6iOavksciJkttDjdwBhY+CHIYgH5T7GqyDEaiVkq8z+KM+gyAvhOfaffll1t+84JvcbqJ56wjkRME3Go7Fs2hwWwT5UPK9Bnvla1ErBV9jsLj/B0E+TOfzILzHMNjdl5JdckE4wukGmrtGIyeEV3e9I2bwHMKjW70G6r8aFW7VlbafwXMIPwb7bOdPIheEr3K6geautyMXSu4B++ZAj2fjjRAAwpM7zxuDHN6ZBgfBIHwg/g9KGmteNs1OCr7E6Qaau/ZBLigvbVMZ4CkI8qD1DdSWwAMtP/4VLg9v60wQvjuSwPpBDoPwKaebaL7KpRKk4G5tawokvD+r67FuZRrXM2gLXMIFwj8aBPsPIPCP8neo5ixOAfqgvMvtRpqnFoPsQQ4IL1vT3xJ9U7oQm8Tg6+AC4fcM3mwvROAb5e4QrohSsFWgvMTpRpqnhH9HDjS5Z9ufCeHd6Qsz8ItyssG8nwEXCMdaWL/GNYBzhBfUsBnMTVUH3lGe5nYzzVHCi5ADyitqGp+PIvBJg5tA+KjBnB+GAZKfF0ASP4fAJwW3hHJpGMKsBuVH3G6mOargSfCOcCSEK+KEJFgJ5XFG874dPFAlPT1o8AeWIIcj8Ifwa/3nK3IB+jCbL4NwhdsNNTcVfCO8I7yq5lOS/0TgC3I4hIVJDBwsmd55fgKBL5rcAMqFYQu7FoS9bjfUvPS4+2ufPl//NepKBIMntwZASfwZBkmuZjD3YgY3RuCHgkf1n6fIBVh1l0SnG2pumgrvCK9xkCexPFnDBj4Qbgrlfd3hipn6wvMZo4X9FQR+UN4xkHnrenfAggc63VDzkvfeIJ56Pwi/j8AHwjOM5vkJn94PyuvN/uCS2yMYENl1tFp3LcB0Ph9eST0S+IDbjTUPLUODW8Azwj84Gq8lUG6OoF6EIw2TpH8Jl5Q8xHBh3xIJgQ4Q/srZ1+EJ8IxystONNQ8Jr4JnCr7T4ZidjKA20keJULqvJ0aD60P4QNcG+04nNX7iM86C3YNo8gXwinIft5trHvoIPKO81eGYLcRcboigHpQ/NDV9IofBLcqzDP/4p9DLXRHUg/LrTjeJU+EZ4Z1Ox823vPvcK0e7HbuSRyJoPyU/0NUnnii5talBjPDucAisgSY3cHufLXzM9ZoIU6B11ZfhFXIYlA2n4xbGQDWQPk6FjxrO6aOYwxfCPcqfGC/w6yIfoM0oD3cb7JSE8Ex4hRwOpbodO48S+g52yiPcjt1z2hdBW0iJqsp5xvN5GrKg4GugXGY8GGcjaB/CPzsNcs9dD5XcGl4Rftzt2HmUcCK8kqo7ONvt2OXWPyF35nMjCP9q/ULs+pSzrYkQlVJQDewpuXMWtrbCc+GVaVwPyplux86X7nP+9f8pp+PWX8+knh2B9XN9ad9xDy+c5zLGlxgPyrMQfggBwtGuCngN7gCvKEdl8SJVvw6HV2ZwYygXOB23vE5Scmca1+tfFh1uuH1RTmjTW+6BCOxqWpUPuw1w/SX8NTyj/JnbsfMg4Z9A9sAryglux27Vus9946wcIYdDeGGbKjoOQZY0uUFbkp+ET0YnLCOUxxjN21KjtbAiWbN6JXUJ5INON4v68zia3AVeafKlED5m9Pc/BeE/jDopHoogz81feAOyRvjuNgWQJyB8G4LWIrzdZmGbfgnfBM8o3xNXAavUcfCM8FzDQH8OhJ81c1ENWlkO/eu22Tr3ckdkT1UWaC7h01COQdAyP2ujeboHDW6S/ldJC7m/FlKe5XQTrku/gWd6uaOhC+bj1enCpmZ15MK9EQyNuXwRlDe18UTss+gImnxBvxpJ68TAsQiGjvA8o3maYNkru9Jdrr0ipvN5UN7idDNur4SzXWf9A4DyEsO//6vmvSOEP0IwtKR24Yw2PhN/9m35O1hK7gfh8jYN3goUPAnBOpO+0JVPmHR3E27Vlnpq4dHwTJMvDYMgPgTlTvBMwTcaXtksWunlp5c7GsXJxa57Znim5Osg/Gdbn4lZ3AYdR/u95H+QNpnAU/LfpW10VLvXdbtgAFBul1VZWWu1BMI3wzu2JlhfWlVb9a7MsfBIwYP7JX7af7yWfC86EnI4lDe1vaxoJl+OYHAIbza6m39X/zVh6amexUlQ+sLgo043aSs9A+X+8I7wfYZjsGCVL6gFDzSKhXciGIzBz1ltT9YVfgMdTcEtoby3zYM6P5JgBoFyJ6O5mAWyp61d1YSPpdI77whHQni/08261VqCkgfAO9P5POMrmk+tttGQcI7Rv7kPgoH4+t9UQy7MNa7zllpGwb2gXNLmwX06rINrzlAXntjuE4dKU5ADJbeHcpbTTbtVejibJjXCcYbxaM4aDXqEJxj9u+chWKNbZ7s/UCtpqjLoGoSH1VQL/UP398J1UR19Gd1JL13jl3jJN5itB+GzUO6OHCi4JYR/d7p5D1VzU1+JHJjJzaoERZpI+KEBlJwttvBLiWTA1ca9Cass9bTXQtcW5h1nqykUNLkngn9H+X6jcf8F1obwsnDUSsF/QygnOd3E11VXoMEXIxeU3zFci38F2VNbGa7wkwhWOnmrq9tp1eVvL3Qtysm1JSEJJ3ZWrWULUF5h5Gf9FqwN4WtN38CFByEnSn4AwkecbugD1TIox7v2919VO/PKqrqeZ6Gi5B5Gz8EMBEhrUjgWysU15sL8B7oacjiqL7+adH20zKyYyZebbMDCOSB7HLSR1uzKQtPXCa92urmvTbemTSw3lFeYnoQMBuUdFr+ju786ATT5Cih/V+OzsTTZ5AdASoZRTq3RiewRCMdm9ZVigfBEozH+8qCa5SgfN5zrccgR4UFQznW60ffXwxCOyzKjWfifpi6lvdwVg6HksUa/ZzK6EXIYhGPrLLutcpI+jKAP87kRhL+v2ZL0hvTF1a0oZ5o5/w0G4VeNs9A3R47M4MYQnuK4m+ATUJ6Ngi9BjpDDoJwOJd1k4De4iZERzaLU2KabEO49oPm1t6r/GILV9J4X3uDAneyLKSu0m1DubjSeUzFYhJuiqomPr5/VvgiMQ2VP6kCPQzkp1U/njPIY4/verbEuKH9gVonQDczhC6H8bvXlzbpUlaJ/EMFa2i0qL3YQ1P7WVfdkdt3pRmNdUB5vmphWcDfkzlxuiIKHVjkCy9oczFYkl82Sx7pv5DPwTWKh4ZidNoSYuKfRHF6FTobsSc+HcoGTl+R3IBiwZfAPHHQpWw7hBR1vJUwOM2rNuzAl3a17XW7D0iK6o3I+knsZP5+u0YRPGlbO3JyuIZTboZMQfstwrd0/5Np74e0WL8IdmwCt3AfCP0JJB1qEgm9CMEiU451M4GIIJ6Yvrk5E+Q6jcTsLQ6Hke43ndQw6kSY3gPBtKZdCeDWEswd7/FmZMv2jypQ+C8r3pPvoTqTkzsYGMJ9wez0h/CI6iQa3hfCCav3Sge6FcASCdUT4WVTtMR1oFpSj0Wkof2oxXi1xfRNea/hldk+6T+8GGlwfTe4C5f5Qjqmyyz8P5XgIT6jqoT+cXrpK7tFVbpnK6wzX2P+BHN6KvA+T6hhhLzqBBl8M4bdR+Tc4UaMz2/q2G+FHIXzazcQK/9AxToLzuZFRlvGtaAW93NX4fvvrCLqXggebxoqS+6FVKH9i9Btfj1xJieP8YlXdQ0e6pGNPzOqgaiA0z8sEV0dMU7N/ESh5iFmns1YhPNc0M7eXOyLoPtLLL+82jBNXopWU/A+j3zkJuVFVwgyhcY9lcuwZ4TBrQZMvhXKaswlfXlUt7IQcsTFgWgrl5i093lMuMnVnC7oP5amWVuMmMUGpFkmK2ZQ9Vxs/qsx+T6pOUt+PwLxr0yQo6fFFIKuvybl8kcmdmfBytBrhCcZHte9F0D3M4jaoPOCz+qoWnmxkDfwueKbBTaqN/z6nJliaTafLjkD4X0PZvIzf/H+cxYmA8OhsDEYaXN+4V37Zdc5o3YzykizdJmdxG6Ok6J/BHZU1uHAilIucbvyE8Ndx318Hyn0hvMfpolgO4eXpN3rFIsNe+IhZuaRytPGcnYKg8yn4TuPn//OwRHm9hVFNyolwQjLqEv4IwqfcbvzKx8PWt2YqB6//dbpAWGk6Sh7pqjnKTG5mdPx/Hgwx7RchfBJNvhpB59Lg+hCK4bPeRJMbZJq4OwZ1oxwF5VQIVziN5UwS3oYGd0Dgg7TBKh93u2CqtrgQjrOqsfbQZcy8v3WTu5iatgivRdC5CE8xfs7fg4SxBbTwEYO1fxnqoMkNqvh9l9vYvXJzszOyayveFTT5aghvc7pwnpPwAQjPrPNr06gX9j/62utmadvayQ6B3U6D2/ZN/Mt6A7XxBFiaKm7ahXInCM9x3N2yv2ah5BsQOGYa14PwaxA+63QR9a8cuA7K0W0tw1FubmSuczqQyLtxi/Cfybs96CyUV3aMn4Sdffcx5qcXyiMg/JPbuLzqfK7vR6JfTgjfDGGv20XVT1Uy46mpZag1wk8aHf+/Du1C+DHj+fg2gs5B+X7j9fI12NO/gdc/s7kCK7gblJOhfNhtDF6NlXM08smVVDrGCRA+7XaB9VP1ZX4pCh6IaVwvo0S6Eu2E7IHyVsMH/9nsXR6D5+xilXMNn9l5q8nryfEq7Jl0DdA6n5FjoLzVaaxdk5ZAOT7u+juBBneA8PdOF9qatAjKKVCOaqWrnsnxv/CraDcF9zJtFCW8HeRwBHmjPL0jc0aEexuZAh01xE6UB0F4AZRLnMbVtelGFHwNgg6C7EHJIzNKOFlZQoFwIkpuj6FQ8CiL35ea9tSB8DzjsT8OQb70ckfTE0Dhn1NsqQtlWXsPA3IYlKMqh9aH3MbQteu+tEcEHcxMvhzCi5wuwIEmDt4E4dEpGW6wKC81aXtZFwVfYhp0hI+hyVcgyA+yB8objUvCRmAtZNfPQPj0gJJglftULXgXuI2XA5HwKQjPTPE06BJKvgHKv7hdlAO9pxbeDOE4NLjFQLqfGZVBTUCdKI/v+3uy6G0QAEDeiaIeuuj1ckeja4BDV/ulLzwDytJtXBxcR9eL06lq0IWQPVCOgfIfbhfpurwMlNy6nZnQtTfBIIf19X/Ipr9BYHsyJHzAcE0sTEluHhDeadHPvo9Jz35QTsr+S7+vhH+FchSCoGoxOTHjpJVVXRP8BcKTUXKPf91RKn9s8G/NgAeEext7P9yX7JODPBBeYPyMHYZ1IKMOgUshvMy9u+pgJZwdL/PBKkl3vcIL3PtQr4uxjfD8ql81W6z/hheE5xqP4/kI/CN8m+kzLPwTyB54oeBr3MYeLxLeD+XnUml4EKy1vEw51e1i9iThCDghJS4p7zW+M3wHAr80uQGU2tGJf6tCOdNtjKhXCyE8Ifk0BMFgSM52youdLmwfx2neEH7U+O9upmTKwCfK04zX/JnwiHKC2zhRV78V5fjY+IMhk6wglb9zu9jr0zexjmTbMjiJpyPwR8HdjDtFznfrBy98rdMY0W7dC+G4eEkPWk5qdau80enCb7vcZtEKX2ts/7wsXRMFbqhK1G4xXe8FD4ZDqgZoIyG8z2mcaE8vFeFnUrOhIDCl4FshvLrjkgUHp8UoeTCEW8Ejwq8Z//0zI6HIEcLPGM/39XBCKvNVjobytOq06wmnMaId+huUh8ezGLSdyoRjEoRPOn042qUFUE6FcCKEB6Ua7FqpTI+EszuqA1ywanr5StNNUPhU6idSA1Vi6ygIx1UVSnc7jQHtbs97Q4o1ZA+CoFZm82UQTszcB9vupUA5Br3cddUPa8blYMplyX8gqBfldcYbziloB8Kt0qamHF9t9r0QLnf6fLdfwqfTuJTcGUHgjZQgJBwH5Vy3D1G9eqg6sjy7asy0dzJhskT5U+t+4XH8WCMFjzKe3940v63+qi/5egiPrrz0p2XXJ7/dPibKL6dOpkHgnpSUww9C+bsuzxMYaG39XAivgfKbKSiWfEMKkq1rf7wwrgI6kAa3gHKR8docNZR++FUF0ScgPKc6qZjn9ln0d8x/NZSjUzwNgixpcAcoz8q2DXG9urfqfHg+lF9KWdjCEYMu8Sl5CJSMq4AOQ3mJ8bxOGcAmv2FakwUPro7ufwThH6FdnJE/9Gz+iWhwWwRBx9DkBsmkRvgntw9fLhKugHA+hH+A8LzKC/1wKEclO2dyGPqjvCKuAjqIdMJGtqX3Q8EtIXxz9fx+Bcop1VXWvDjha9kL9OUoeQDI4QiCjqaXu0I5Oe79zLS0avrxByh/AuWpEJ4I4ZNxFdABzOWLqnthGmoGlArhU07XeP4SzoHwZLelxEFgfSpQHWtfBuVStw9qaKBalpK7AluEP3c6/6GBNeWZjIJvihK+IFg5We04KG+JY8WsNTeylVtLdc++FYQjIPyK03kPrV6Pp5c24bvjiD8I1kaTr07H1spZTh/o0Nr1RJXEqFDekYxLlJdWgfB7EH4DyvHppU/4cSjHoOCBKLlfOkUouBdKbo9Z3AYzuVlWFqczuHH6zSW3r2yZR6LkW9LfphwD4WEQjoXwxMqx8TvVVc0llcHL7VBq5SWx2On8htZes38ZlB8OX/4gWFcKvhHKs8NbINSnNO3hSosgnFNpNpTT++hGCG9YnarmVhf30fVr+f//5V//bWHR5999EMqHI58lVG36V0F5THoBDIKgtcmDld1u4TYIhEKhbtISKKcmY685fCGCIIA9whHVy8CdTgNDKBTqTC2AcgqU+0fpaxDUStWLoOSR6ShX+JjToBEKhXKX8LLI3g8Cr8zlhlD+1G0ACYVCOauJIAgco7zOafAIhUK5q+CWCILAIeRwCB91GzxCoVDu+giCIHBIk3s6DRqhUKgTJPwegiBwiPAzbgNHKBRqlxZUScGnmzS+CoLAIcKLDB74b0E5CcpbIXzaacALhbpTwseqzpjfQMGDU0dMVJA9UC5s8b/3LBrcBEEQOEN4T8ud5wq+BKiYzudBuQ+Ux1e2tgWEy90Gx1Cok5Tc9ngblN+tSn93AjkMa0L5G4NEwLciCAJHKLczCDoNrIX0NSAcWQWkSRDeDOUSt0E0FMpBwkerZ2kShGOhHLVOPSEKftrgt52IIAgcITzMIBBNwbowjetBOALKIyA8p/KTv9dtsA2F6tOyqvnRJVBOgPL96OUrW+kaavCbL0EQBI5QfrflD3rJI9FCkl94dVoA4RlQToVwTrRADnWBlkE4p1rzZ1TPwEjzbnnksJY7hArnIwgCRwhvMwha22G1/D979x6lR1GmAfzJBBDEILAqEvACuHKR5RY0KN4QkcUQJC6DIAIHBRUWEWVNFi/HCIsHdmURL2Ak3IJiZEHBqAhsCIiCSqJhmPT79gfJhBAIEO4Qcpvk8Zw+fcDAJJmZdFVXf/P8znn/0aP5pqu7qrqr6n0r1MMtkXG/chnhbBinwjkLzmcT7cwVirXFIzDeDuNkOCcUG/My7l5r3nzj/wdYBhgJEalbuTnP+ELFD/lDSEEXt0HO98H46WKns3FqOdlZlOgAoGjnMPbCOR/O2+C8ovhsn/MoGEehxS2QIuc5Aa7F4RCR9WtkAiDjVKRuATdDzl3hPATOk2E8F8ap5ZHFhXCuTHYgUaQay+HsgfEOGK+C8+yixr3zQ8i5YzHZbhrjYQH6h29BRBLgPDFAR3g6mo4cDuNI5HxXsbnK+IXyK8IUOG+F0eB8MtGBSFF1GJ8q23xGeQ98GxlPLQZI4yh0841tWe2ui9sEqQwoIglwTgrQYe6PoaKbm6DF7csNih9FxuPhHF8mQfqdNik2MuYj4zjkHI37+Ca0+CoMZc75FU8A7oeIJMA5q/J1ztncHIKCcWKig5yirzAuLTbeyUuMUytPEmYcARGpUQ83LdctWWF0QV6e1+APEQavWWjxI8g5Ds7OMgHMKXBOKONsGM8t4wdwTirjajivKcJ4I4y3rDWcd8E5s4+4c53/O+MvXvw3yn+3+A3l74Hzm+VvHF/87ozHl3/DwTAeUG6S2638DQwc/w5Zk3N8gGPCoyEiNTLuG6ADvRyyhuIzcpz9At9Euyqz0gUN441tuY6/oZyHBJgAnAQRqZHxhAAd6SmQVzIeEWEAW1XsQ2g3OfeE8YXA124xMm4LeaWc2wW45t+DiNTIeH6Amf27IH0qz34zcDxZHDlrFz3cssyCx8DRCVk75+MVX+8ZEJEaOW+q+KFeUewrkD4VmyOdeYQvAbOLPAftwHlthMH/Usi6OWdUfM2fgIjUyLiw8oFH1qnMK7AiwiRgMprO+MUI12medqT3g/N7Ab4WbgcRqUEXtwrQof4Esn7GM+BkhPgMmsr5TjiXRyiy8x7I+uU8KcDk6wCISA1yvj9Ah/qfkPUjh8H4yyhn2o37omm6uBWM84Jfn4xnQvon52idBBBpF86TAww4YyH9082t4Xwgxifu4t9qCnIYnDdEuC7TQXZA+qebr4FxVcVtcC5EpAbGHwboVN8K6b+M746yH8B5M8jhaIKMZ0YY/BerJO0gGO+vuC2uhYjUwPj7ih/m55REpYIsa6HCeD5S5zwQxt7A12E1jIdBBs54Y8Vt8TeISA2Miyt+mP8EGex+gOsjTQI+jVTN4VtQ3pOB47uQwTH+oPKXBhGJbC5fG2BwuQSyIScy5sfYFJhioqayJsXdEQb/LuWp2ADOL1XdJkW5YRGJqMW9A3Sup0MGz7k/nCsjTAIeTK7TNU6OMPg/D+cukMEzjlXpcJGmy/jxAEeqPgJpSn6APyZT4974uSh/c87jIBumxd3ULiJNZ/xK5Q9yiztBqjgCd02kScCPULeco2FcpqyIDbGAmwU4CjgRIhKR8aKKH+JezOTGkA1nHAGjwcm2rn2fcVsYF0YY/O9pm7oIKTA+qL1DIk1W9XEeZw+kOsadYXwmwuDYi5xjEFm56e+uCBOc55BzV0h1nLdVfA/+GiISkTOvPKuaVMt5ZKSjgU8Xa7traItNf4TzU5BqOS+tuI1mQUQiITtgXKbPeA1g/N9IA2UP7ucbUGiTjY7GiyDVM36r4rZ6GCISSTffHKCz/SqkejO4EYy3Rxow7wh+MiDjQXCu1Lp/g1VdQ8TY25g01SKNZ3xPgCOAR0PCbZZzPgwnI8QVCCXj2+F8MsaShk6kBOQ8PED/sS1EpNC8HAA5R0OCFg1a27JNI0o6G0fA2R1h8F9d3N8STsb9AkwA9oGIROA8RTP4BnKeGGkpYBWMR6Aq5HA4p0X67d+CIHTNhgAvEGMgIgDQsE08xlXFWrUAaFwxlrXXDHDun2zZ6aaXPG6yHm4K4+qK2+5EiEgEzh9VPFg8ComimGg5b400oD4O487YEMb/iHaKIeM/QaIIsJdjPEQkAuMvK6+wJtEUA51xbqQvAfMGXTgo5xgYeyP8xhe0hhyZcU7F7fhfEJHwAmRguxkSV8694FwSaRLwF8zm5hiIjPuU1fcYPDIeD4nLOaPidvw+RCQC47yKB4irIJGVpzmMqyNNAn7T730eObeD8cFIv+sCSHzOGypuxyshIuEFeDP7DqQezm/DyUhxMdZnLl8LZ1ek33ObClDVxHhVxROA6yEigc3kqwO8hX0FUg+yA87rok0CjF/DWhRZBI3To236c74OslaNqibqvBUiElaR7736QeEESG3KGu1/jjgJ+MJa6kv8LNJveA7OPSD1MZ5XcZvOhIgElnPHAAPCEZBalbX1F0RLFOQ8so6iReWehyMh9TJ+veK2vQ8iEphzjwCd8sGQIJLdeW9cBueBkc/6sxh4pH7G0ypu18cgIgDQsEJAzv0hlUv67H0RXALnN8ovAowQ14EcBqmf8YSKJwDPQEQCy3hQgDzee0LS4Rwf8Y2c8Cgxq9jAKmkwHlFx+z4PEQks57gAE4AdIQPWqHTP9cYi3Mc3Qfqlkf2IcSlEJDDnsZV30C2+HpKWbm4C4y2JDugDTfO7HyQtzo9V3NYrICKBGT9fdSddHEOT9BhHwPi3ZAf3/pw2yDkOkh7jYRW3dS9EJDDnl6ruqFWCNWHGkXDOT3aQX1cYz4CkyTi28vYWkcCcX676wdXO7MS1uBucTyY70PcVxksg6cp4aIB+pAMiogmAVCzn+2FcluyA/49h/G1ReEjSlfOjVbe76jqING0CYFwNaYaMR8O4OtmBvwh2FwWFJG3OQypv+x5uChFp0B4A4ypIcxi/kujATxgX6rhfQ+QcU/WLhJYARJr3BUC7d5vGeWGCg/8zSijVIM5O5QEQaZrq9wCshDQLOQzOyxKaACyH80BIc1SdCtj5BESkgUsA2gTYPORwOK9L4ay/qkk2UMZTK74PHoSIBOY8vfJOfDY3hzTPAm4G4+11TgCKgUSaxzmh4nuhBRFB8zIBKhVwc7W4BYx/rWkCcA6kmYxnVfwFYDZEJDDjMQE68h0gzWXcGcalkT/9PwLjCEgzGc+v+J64CyLSwBSexn+BNFM33wjnvTWt//8J3dwa0jzGH1d8L0yHiARm/GDVHbmqtTVUN98MZwtO1hhdyLgtpFmcv6p4AvBLiEhgLe5deSee88OQZmlxp2SKBBnnFb9HmsM5s+L74GKISGDdfFuATvwTkObIuDuMC+FkQvGwlpIaxPlQxZPAiRCRwLq4TYDO+3RIMxg/COPTiaYDfgI5R0PSRnbAubLitj8ZIhL+7HeAT7jnQdKXcxyMSxMd/F9MCawlpcSFeInI+HGISATO5yrutKdA0pbxVBhXJTvwrxkr4TwRkqacewWY+L0HIhKB0Sp+gG+GpIkcBuc5iQ70664Ol/FMSHqMh1Xd3toEKhKL8ZaKH+B7Ielp8VUwXpnsIN+/uBQzuBEkHc7xSicu0lTOyytft5WkFOmZjX9IdFAfWBivx0y+GpIG4+SK2/dpiEgkzrMDdNIjIWmYw3+GM092QB9c3FVsPpP6Ge+ouO/4C0TkJY0rCGQ8AFK/jAfB+FSig/iGhXEhjKMg9TIurrhdr4KIRJJzDJzUOd424zwFzpXJDuDVxPM6Mlajbm4doE2/ARGJJOeeAR7iCyG1KDf7/biu3fq1/JvGr4McBokr4weUSVSkyRZwMxh7K36IfweJzzgSzrtqy+Fv/CScz9b07/+suJflJU08AdDi3hCReCrfJGZcrDeyyJz7w/kwnKwhHC1uX05CRhXtX88k4G9FVUOJw3h95V9zuvkaiEhEzuuUzKPBjJ+Fc3lNg+6cV5TwncN3oCwQU0M8pExykTgXVXwvPQgRicw4McDAcAwkqOI8vPOKGnfi/7nYCNYX41vhvK/G9MET9BUqIOcOAdptGkQkMuMRAR7m70HCce4CZ1eNg/90tLgF1iXjtnDeCydriv8rfqNUL+PRAe6pr0FE4ioHE1Ycd0PCyHkcnM/XOLBeix5uiv7o4lZw3lnjb23BuQekWs7LlD9EpB2QwwOUhl2BHm4Jqc5sbl57Pn/jBSA7MADFxi7nTTX+7iXFpEmqQQ4LsP7fqw2AIjUJlCv+SEh1ZVeNWa0V+ZzjMVgzuXGd+xXKmKSjghUw7hvkBIeI1MT57QAP9ZWQDX/bMn4RxmU1Dv69cJ5Y0d8yseYvGBky7gNJbdPwRRCRmhgPDvBQPwayAzIoxZl25201D5jPwPmvqJLxhJrTFK+AcaLuzUFy3h2gTY6FiNTEOCJIp5xxP8jAGY+B8emaB/95yLg7QjCOhXNJzUsCtxYJjKT/cu4YJOVzN98GEamR8c8BOtnvQvqtKHPrvCaBant/QIuvR0jOd8L4aM1/59PKWTEAxrMCtEMPRKRmzv8J8HA/XhSokfVzdsK4OIHBf2q5WS7WG+WcBP7mKUVSI1k7sgPOB7T+L9KOMh4aqHP9N8jazeFbYLwxgUFwNYxfRWTl8tOvEvj7H9VxwXXIeFCg634YRKRexVtfiAQzxt9A+s6/kPFUlBX0ao4ltU7UyOFwXggnE4gbkHM7yJqMPw/QN7yg8/8i69fkh7xXxYHWVGyOdM5KYsAzLoRxFFLgPBHOFXAygb0BX9RJgVKLOwXZJGz8BUQkEc4jA3Wol0BQpsa9EMbeRAb/29HNNyIlzgPhfAJOJhC3IeeuGOqMkwNd309BRBIxm5sHOp61fEjXaieHw/i5VAa2cr3/PMzgRkhQuTlwdiKTgBUwXjBkU1t3881Byk0bl2EuXwsRSYjzukCDzg8xFDkP6aMqXr3JfXKOQ+qKcsf8aULX7VHkPGnILQs4Lw5WrVFEEmP8ZKg67UOqMluLu8H4aziZTBit+F1NYvwsnCsSuoZ/Rc73YSgwjgq2XJVzDEQkLWXVuacCdZ6/BzkM7cy5A4xXwrgKTiYUPy3atokyfgBl0qCEllB+DuPOaFdkB4x/CXQNFyW7/CQy5BnPD9h5noB2ZHwrjJck9bZarrXC+AU0XYvbV1C1MkShpMuLtm83zpMDXrtzICKJyrljwDfYJ4r//3ZRbJLijyrYKBWm+l3OvdAuZnAjGCcm+HVlBZyTYByJdmDcGcZnQi0FqgaDSOqc0wIOTPc09nM0Sjn3LDv9pXAyuTBOafw1XtfGSuNjCV73JTBeUGR3bCrjCBgNTmrzn8hQlfEjgTvLnzRuPwA5rCiPa7wFTiYZxsVwfgztLud2MN6eaDushPNqZNwHTcLi/r426LXJ+G6ISOLIYTBa4MHqh42YBHRzazi/BKMlOuCwjJvb5jN0/5cEzoKxN9H2IIzT4Twk+fuc7IBzUvBrISIN4Tw2Qid5GcjhSEz5NvReGK9K9jP/mhv9zkh+kAkl52g4W8m2j5MwLoDx3BSXB8paDJdHuAYHQEQaghwe6a33pmTeXDPuDuc5MM5LdjBZM2YV+xGGOuMIOC9NtI1efnJgGpyHYyY3Rt2cr4tUjXEGRKRhnJ2ROscnkPOo2G+x5VLHvjBOhPPeZAeOl4dxKTKeqfPUfWZeXJRsu738njdOgbOzlqp4OT8M48JIeRP2hYg0DIsB8vcRB7Z7kPFokMODbiBzfgLGyQ0aLF6M8jz8LpA+FQWOnDck2359x3PFDnnnp4KXI3a+F85pMK6OdL/+DCLSUBn3qeHs9SIYL4FxbHmcbfAV+DJ+oKi9b5zSoE/7fcXzMJ425PLRD1bGoxM9Lrj+MM6F8woYP42cu27wcoFzFxjPgPPO2BObIV0ITKQtGH9QY2e4Csa55Vrlf8M5AcbPF29Lzk4Yjylzxn+5/O9/CuMdMD6YbAc/wCiPHu4AGZgWXw/n1cm268CqEmblMb1z4DwFOY8qjusa90WLe8M4Cs4PIeNBcH4GxvOKmvvOnhp/95chIg1nHAHn/EQ7x3aORch53JDd4V8V41g4H0q0jds1ZmmPiki7KN42uDrRzqbdYgWc30GLW0AqUdSfd16YdN6AdgnjUszhOyAibcR4frKdTruEcbo6z+BpnP+YbPu3QxhPg4i0mW5uAufdyXY8TQ7jPDgPh4RHDivXyRcnez80N6ZpyUqkXRUV8PhIop1PE+NZGL+OHm4KiaubW5cbXFckem80LfJiqUVE2ljGd8O4LNFOqCmxHM5Jxbl1qZdx5wbmDkgrjE8XRxZFZAhwHg7nymQ7pFTDuArOa3SsLzXlxNZ5Z7L3TrqxvMgsKCJDSM7jdDKgf1Fep2uQ8e2QdJEdZY6J+5K9l9Krb9AJERmCcp4E46pkO6gU3viN1yPnXpDmIDvg7NREYL2D/7EQkSEs49HaSNVnmd5LlLe/4WZy4zLT5APJ3mt13d85x0FEpKyf/2iyHVasMD4D54VFURdpHy2+qjw6mCV778UK42LkfB9ERF7U4k4w3pNsxxU25sN5elHaVdoXOQzGsTDenuh9GDaMc9DNt0FEpM83JeO5Q2JfgLG3LNTTqbznQ1DOd8F59ZA5EmucjJl8NURE1injQTDen2xntmGRwzlBZ/jlH6oOjm/jDYOLYDwCIiL9toCbwXk2nEsS7dgGmrFvCnK+X6lOpU9kRznx/TmMLyR6Hw80Z8Uk9HBLiIgMSsZtYbwIzuXJdnZ9x+NwXoaMhypVrwxi8tsJ57RGnpAx3qKjqyJSnS5uA+eEpGuzGx+DcQqMY4sjYCIb6n6+AcbPw/jrxL8MrIRxarG3QUQk2EbBnOPgvBbGpTV3eg/DeQ2Mp6HFvfV5X4J/Gcg5Bs6LYZybyMDfgvObmMO3QEQkmtncHBkPLauydcO4KvAbzhw4L0XG43WcSWqXczs4PwHn92GcDWNvpLX9u2E8S2/7IpIO4wgYPwjjaeWk4CYYDc7H+5Nvv6zx7jBOLwZ65zeQ8yg490A3N4FIynq4KTLuU9bZOA/G35aT1ucGnbHPeS+c1xXPgvFgbeoTkeaZyY3Rxa2KT5U5d3wxWty++M/JDoi0K+MItLgbjAeUywidxZcs42eLyHkcnJ3FIJ9zTxhH6pkQEREREREREREREREREREREREREREREREREREREREREREREREREREREREREREREREREREREREREREREREREREREREREREREREREREREREREREREREREREREREREREREfl7e3AgAAAAACDI33qQKwAAAAAAAAAAAAAAAAAAAAAAAAAAAAAAAAAAAAAAAAAAAAAAgJsA0UOi68LC9acAAAAASUVORK5CYII=;" parent="1" vertex="1">
          <mxGeometry x="50" y="-212" width="82" height="82" as="geometry" />
        </mxCell>
        <mxCell id="dwARR20L6FCNaaWJkSE--42" value="&lt;span style=&quot;color: rgb(0, 0, 0); font-family: Helvetica; font-size: 12px; font-style: normal; font-variant-ligatures: normal; font-variant-caps: normal; font-weight: 400; letter-spacing: normal; orphans: 2; text-indent: 0px; text-transform: none; widows: 2; word-spacing: 0px; -webkit-text-stroke-width: 0px; white-space: normal; background-color: rgb(251, 251, 251); text-decoration-thickness: initial; text-decoration-style: initial; text-decoration-color: initial; float: none; display: inline !important;&quot;&gt;Frontend (React)&lt;/span&gt;" style="text;whiteSpace=wrap;html=1;align=center;" parent="1" vertex="1">
          <mxGeometry x="29" y="-255.41000000000003" width="104" height="40" as="geometry" />
        </mxCell>
        <mxCell id="dwARR20L6FCNaaWJkSE--44" value="" style="shape=image;verticalLabelPosition=bottom;labelBackgroundColor=default;verticalAlign=top;aspect=fixed;imageAspect=0;image=data:image/png,iVBORw0KGgoAAAANSUhEUgAAAWYAAACaCAIAAAAVY3WXAAAAAXNSR0IArs4c6QAAAERlWElmTU0AKgAAAAgAAYdpAAQAAAABAAAAGgAAAAAAA6ABAAMAAAABAAEAAKACAAQAAAABAAABZqADAAQAAAABAAAAmgAAAADj0RZbAAAa7klEQVR4Ae1dB3hWRbo2kIRUCAkkIZBAAomhqvReVJoo3Ufsde9evbKrd9d9rl5d7up1LXst61pQlFUsi6hgoQrSew8JiRAChCSEQEhvpJD7wq+H+c/58+dM/uQ/mfD+T5Q5c74p550575n55ptvPGpra6/hjwgQASJgDoFW5sQoRQSIABG4hAApg/2ACBABCQRIGRJgUZQIEAFSBvsAESACEgiQMiTAoigRIAKkDPYBIkAEJBAgZUiARVEiQARIGewDRIAISCBAypAAi6JEgAiQMtgHiAARkECAlCEBFkWJABEgZbAPEAEiIIEAKUMCLIoSASJAymAfIAJEQAIBUoYEWBQlAkSAlME+QASIgAQCpAwJsChKBIgAKYN9gAgQAQkESBkSYFGUCBABUgb7ABEgAhIIkDIkwKIoESACpAz2ASJABCQQIGVIgEVRIkAESBnsA0SACEggQMqQAIuiRIAIkDLYB4gAEZBAgJQhARZFiQARIGWwDxABIiCBAClDAiyKEgEiQMpgHyACREACAVKGBFgUJQJEgJTBPkAEiIAEAqQMCbAoSgSIACmDfYAIEAEJBEgZEmBRlAgQAVIG+wARIAISCJAyJMCiKBEgAqQM9gEiQAQkECBlSIBFUSJABEgZ7ANEgAhIIEDKkACLokSACJAy2AeIABGQQICUIQEWRYkAESBlsA8QASIggQApQwIsihIBIkDKYB8gAkRAAgFShgRYFCUCRICUwT5ABIiABAKkDAmwKEoEiAApg32ACBABCQRIGRJgUZQIEAFSBvsAESACEgiQMiTAoigRIAKeVwMEtdfU1uK/Xx/V43LAA79fY/gvESACJhFosZRRUV2951z256nJ+RcqsktLM0qK8i5UVFRXebZq1da7TSc//8iAtkFtfEZ1ipwRHRvs40v6MNljKHaVI+Bx6fvbgn41tbU/559feer4i/u2l1VXmXkykMXkqO6/6zdgSFiEv6eXmSSUIQJXLQItijJOlRTNXL3seFF+SZUpshBbvbWHR3TboJeGjpnaLbYpRhznK8pd52ZULMTHV6w2w0Agt6JcxCG4jU8rlyed5TXVhRculFRVppcUpRUWpBXlowULKy9cqK4J8Pbu6OPbO7hD/45hUQHtgn18PD2kdYIFyKn2olZtX09PVT5XLYQyiior303a//KBnSZHFlpTGQM3du76f8PH9QnuaLzV4BiQRYeFf8fMqME52BJiSlX48BMuZuLO5Bj0lVdXZZWW7Dt3Jqe89Ml+gxq99O9Ppk5btVTMdsHYSY/0vE6MMR8GKfzXzk2r0tPAFCZT+bT2vLlLt0Gh4fj/4NBOmPnWmxCwjFj26a6cbE0SyLw+4kbtsjkHWoIuI7usdMg3n5wpKzUJdICXd0VNdfXFKxwvJlyfld7/q48/GDPp/vg+Htc0xYBDLK0lh/+6f8fl6WG17SHx8W90yrhYW/tRSqIOxIUpiffF9fFu3VoXb+ayuLJy/uEDZiQ1GfSl5enH8Ddvz9YwX//Vt97eNyQUg1ZNoIUF6mfEZv7AW7Mzhy1dZJ4v8DiP9OwH1nD+XI9t+fHJbesra2qci/GuEwQ2Z2eWVf/CF07EXLkF3faPGSd0OUDtnZSfq4t0zyVGUvjezPnxu+KqSveU6P5S1KaMNRknbv5h8enSEvPAxQeFzO03sF55jEHeS9r/7O4t+IbUK0wBSxDAdG/qqm+MDYS2e3D9iqo6RpENqCoGDBg1tPZohUmH7c+JrgS1+vr4kfCP3z50/lwDymr+SRSemOw+mw06x9DUPMpo6ecHjzIpj3zfPLQHPfKtkTebTGJeDMOcZ/oPNS9vk2zToMG2bCmqyO/KOb3jTJbD2uJ13XT6FJQLDu9KRf51yJh74nrb5hnaZAOdrqiqcmV62kcpCceLC42jUejU8DE7fvdv6x3PSlWmOQirShmws7h9zbel5pZRNaAjAwLHRkQWy6T6MCUhPij4sT79tUwaJeDn5fV0/2GNktVVmwkUn+LnAu+zePmv1JRGoYzLJjyBDkHu1T7kj9cPxkdl0ZGkNw7txeq+KHauvGz66qXLb5kN/agYr3pYyYkJSP3udT9kl0nMR9BOGGK8MeImmG9JtRlGuU9s+2lLdoZUKgo3NQJol3eT7PSUU6NjxUI//jnRPQoFMMK/9bo+Zc4jv+mlX6bZmHVqj7AsIlZP3bCSlPH3xL07c07Lgj4ivMutXXvIprLJP71zcwuzeWsYDs0n1XO7t2BBVKtPz/Yd5o+e6NXqyirJxWtqH9+yVhNwQwAT2DmxPcWCsJj6ZuJeMaYFhNWjDHw6PkhOaAD0xo+A+Ux2nz3dnNseG2ig7YPd0fGigoO5Z6Hl2X8u52hBHrCqEeyFzD+vJomhfuXFGhhWHDp/du+5Mwnnz2aUFF+oqcFHXpNxf6Co8sJXaT9r5WL8uHDc5HA/f10Tr0hPk1pK0zJsWADDjTeG3xTq6ycmX3b8KKy2xBjVw+rNsp7aviG9uFAW97h2wbd3j5dNJcr/I3HfXbG9sPAuRloexirjwp8T3zq0F+wATTCIAxyB99ym5MdXF6p+vEjzBo6EfaFUbZEJ9Iuz1iwrr65GtuAIEBMMVTxb4a818scr+uyA4dOjY/3MWdlXXrwI7cPlqjmuSAcf3+HhnR3fs49NyT9/sviKqVXf4I79Qi6Z3j0/aOSiI4ma7W9eRTmUoHf0sPvy2+fUyFdhfv4DQ8NXph/X8gWMx4ryB3YM12JUD8h1I8uf9mRx4RepybLVwELD+2MnuWhdg6XcjVkZd/RwiXdka+5cfvA3i/acvWJB6Ej40grxKwd2QTmH+fbcPv3jgoIdidnFgXpeT9gDi6a0ogK7G7aLS6Yql+zxwVbQKCHwzqjxZtTDGATpzDRt+Wn/H9c5av3UO7VLJwEYaIqjJ422oKgaF9H1h/RjtrR4XV/av3N292uxPuokt0a8BSbt1b6DSBnIHMO9lkQZboKysVplQ1a6cR2+3sz7dwx3vc3wIj27ezN6YfP5wTzZZGWgMH47cV+/JQvThY+zw7QYSjy+dd1TOzY45gtHae6M7eUouqnikvLObTx9Sssd34M/XDfYdomvAghCu4UAZlKiXbZ4q4nCnfwCdDljc4ouRulLxShjiTCDNYk73GL8ZdDIRrFoOFVcuD0702S5bhB7IL6PVCnQQQxduiiztNhJKixdw4bNiYDxFna+GCObLuYd+4WSJ/oNCvS+YssLG4owe23Cqwd2SRnvuFhzo5bHzK4TFwt1Z3KVJibYsLg+M10WncmRMWMjomRTOZTHEGNt5skRnbo4vOv+yNh2wVAu+Ht5DQuP6OwfiP2UYMb2l/dx4ssGHcTWM5kYFYsVgzrwf/dunz9mohiphaG8WJ6epl0iAMId0yny2qDgGzqERQa2BelAkZSclwvtxs6crKOF+UNCI0zO+KCk7OBjpxoUC0IYNdfFGC+xBnFZIfLLHRQ9PrKbKIZSnhkw/Imt67Tx4PacLGwIhKJEFGu6cJaBkd1WdNM9lJizSpQB4witH4jP4CSMLjW37wAnArK3oHiTTdJ08oFe3pn3PdbR1w+PiVfFWBC+eNDY37H2OxG395MP/umGITFtg4zyuAVS0OK9WrU6cfe/d/IPcJg5tAl4gbExXJN3HgjyboPaOpFp5eAJ9OLfnUwV9wdgkWJkuJ7BEePj6QnGtCWGSdW6jBNz3DJ7As6JBjtxqN71j6HytUqUsfrUFUW0ScyhSx8Voe9S7b19Xh06Vnw3bLlhBCF+wRwWgSVMh/GWROJNjvDXz5zFmmBIPLtH/EfVVQ9tWCnGv3/44CvDxooxCKO7f3wkSYx8ftCozgGODR8hBp0iFk56tg8RkzgPg4OcCzi/C5J6cL3dgywYN8k45by+Q2hsu/biFo+HN666LTrWDQ4pQGcJeXZbS7Bo1b2dA3Z2/qTN+a4ylIEPWmphvhSU6Ew/TJntLZj32JIHeHk9EN9XlxXsgn6/bZ0u0nh5/kLjqLLOl5f1XPyhMf+6YjA/3zjtrrruOonHl/vB+L5Y/oCxhibm8Clgq6YzV4M1tJakOQSWn0yDRYZWEwyybo9xsIAFJn156JgpK7/RHgcbavG9mRVjpxnV8mmsQGlV1YMbVmBlV8zwrtieLWybiTKUgTE23HmKjVFveHp0nHkzivmHD5pRksnWoa5KggF1WxLqkrTFl1S6tJkaFClSBnQWzouz3S2ovNCs5uG6Yeb0mNi6NIvwzBjhFyCqFdacOtGklIEx2n3rV6zNOCkCi4/Wo71vEGNaQNilgaI7nx+DUtgCmS8RekFYIpiUBx8tPpZsRrjqYo0ZZjGTlTtlwu0t0E6Ys4WDQYc7K+m8LLi9+/ToYVFmcmR38VIXvv9au+WkT48miSMUnXCDLzGQOVKQ90bCntB/vrX0+BFdPhMio6E21kWqfqnMKAPbjaXe1UlR0aNML20sTks5nJdrpi3xMYFxYVthVc9MKstlegS1F+tQUX1Fx6nFYzyPSRzMw7WY1w7u+n3f/l0C2moxFgb+e+dmceMyajsjxm4fmq5ueF3hFkyLrKip+dvB3S+Ydn2gJQRViZjY4k8UFWLIA7tb2NFrkroArGO/nTQT9dTFq36pDGUAefPoY6H+teE3mmyb3Iqy/9z6k0lhtD9UISaFm48Ypv1mKvPu6AmPbFylSYIfIz9976Ge/S7v+LJyQIrlD7hT0iqGABw7O99UPiYisrM/5iZXtjt/ciQJS0UmodDK+s3G1fjTLk0GsGC8buoc8z3WZLbNQUwZyoB+3tu0vn1MpyjzaurvTh7DpN1kY0AB3ij9INTPP+f+x00W6lwMLzZ2o2WXliTl5cK7x8HcHMTYfmC327r1uDeuj34beB1fPlhev7Bvm85CdGHKoX+mHPpd34F3xfXq3yGsLvXBr2U2yb/YpiEub2M0NCXK2azEVol/jBo/a823mhIUyxl7z56BWXqTVPHXTLEqNCM67rObb3NxeejX/Jrdv8pQBnqqyY1VeKthqmTS0y/GnM/u2my+WUzWwXyGLkpiIj1z9dLTZaUFjtyXw/H650eT8WeyFJx4sGX6Pb2//BBec8Uk4CA4HHjn8H6c2zArJu6lIWPEu24Iw/mVODvAyq6ZT8LITl3go1iz14Y67IvUw01KGdhWB0fT8e1DTJq3uQG6Ri9CGcpAG2BL1RYT9tpwvfXZUTv7Ahtqw8I6D7PfKIk34c1De7UuZQbc5nOMCHZ5wcfM07s2Sal46n1GoLd1+j0vH9gBr1Y6YSiJUwvyXt6/E5t65/YZMCMmzvwmF11WUpeYlSxIPiQmgbst57MSm3BIG184SRFtbT5MOfTy0LGN2IhYEwFN9AsJbe/d5re9b4D+QqxniwwrQxlAHytnH6XYdR2HTYJROnY6Gm89N2CEjjKwkP6F6S+wLcNmogAHTcBXmBk0jDjUG4ON5F/cPBV+/e9c+z08XBopCbjhyJhXDuz843WDXxgy2mhMVW8RUgLvHj6gO54GuxOHLf3UTCanDa7b3k7cP2/QCDNpbTLPDRx+izAJ8m7dKtjbF/NK2Kpi5NuAQ4/MF908JVWiDGzuwBxcm6i7DujKU2kpkt7rsdvC9XJdzAEI/HnPFiNfABxoHIaEdYLe57LxtQe2pcIA5Gx52YfJCYn2Von11mFSVEzOA3PXZZ5cnXECwwqjPKrxt4Tdm7Izts+8p0l3lxt9Au/PzTHWx2QMdsE+Wzvc/MQhJjBoaFiEycyvBjGVKCOkjc/4yGjjuRUNaye4e4D1sRQB4Z3Ei9Sw4hoxVeGFCij/xQzxAmArDYbcdX3wp3Xr0e2z+WISM2GcHnRL1+74e3HI6D/t2LD5dEayYYsNLMQGfb0IrGFmpmCmUJ0MGmiV/EYBXSbiJbbq5ZaXwReOGMmweQSsXDkzX0tN8nZ7bwhafAMCC1ISYJcllbBbYDsc9SyVpCmEM0pLMkuubGCHonfRTbe+PuKmuvjC9TpgYfK90RN3zbp/2wwMKMCcdj/4pEhwuPVG5rwIuxyFixf37dDNSoSbDQlCI/PKwWZkotaQZ7A0jUqjDAAFn0v4mjXAy44OZNjnfGZvSqgTMF7iVXlx6Bj962KUa/qY1xLsenxUYCBW9dxQMSzZQtV38t5Hn9+7fUHyQe1BoeyAS57N0+/WYmwB0Y2FLcbmClAn5uQSnoFeO7hbFMB22DCDDxtRwGH4RFGBuODyZsKeeQNHtHOvmw+HFVMxUjHKiApsi+0SsqdmGhvmkyOHpbZ4IAc4pIDnCGNW7o/58dQJsVBYDblz6beLf+C7o8bDZca2M5laNbCSha+3zmSjq73ZKKYYGHYYxihaHg4C60+nF1ZWiDe2zri7t/wJ2zNXL1t24qiWD2oC2013+gTVim4BAcUmJkAcZn/Rge1cgR6ueubtlrDFsJX15HWD4JnClXIbKy1sn8WsTFqgiElcDIMaHuuj321lXFgZGtZZVxB0sboY55fwwScm6BIQGN++g/MkDu9+MHaibkMzThhxKMnIehFQjzLg9eBR184uwyHdcLtSLzSiAIyCHms2WxJxeptYN82XjBjZ1OEpXfXGl+K7bSv9xi5R4nQJ08nUQjsXYfVWEp7TRZkbO3c1alJEgbrC8AbWJ9iOaxYdTcJScV3yjHeCgHqUgYd5vE9/81vOdA+POe0ftq039m+dmO4SB3PCpZ0u0qrLB+P7iUXj1Djzrn3FhK6EcRypLrnRjh5ap9aCjT+oDaer6FI5uVxy7Gc44BMFpnbrIV5KhXVnqcGDxuepdvtipXK7moWVpAwMjLFGgEl1A1oO+5T1Gy6c5oKdAjABblYr8+O7dBPZC86Bntllt8vT6QM5u/mvYyk4LsiZxOV7eJNhGCKKwZ5Sp8jAXcT0aGe3g/Y/tqyFoYeYUAvDmSjWsLTZDTaGfJByRcMKMTSEaFKlJTQZmBgZrZOE4a/RM5tOhpdGBBRTf2oPAGXk1xNnTFz+pXjKnna3rgCW6xYf09tB1yWMeLyZOKHD6MLLSRI33IIzThyzsO/cGa2sJcdSoBOdP2bCgI7hbVp7+nl6YgCP1w/+RbCxoqyq6lRJkSbsJPDIhlWACB7DccT0zOhLDmygWIUWALlV19bCvRAmF9B0zt2yVtyHjgzfGz1BZDFbEUg4LiJKVDPDY8UtK77CdlLslLNNMTDcQz2x8+2dpP3IE162gtq0QXK4QT9gPyT588ARrmh5QfpwdwrLYO3xsVB9rDC/t/2ERbvLQF0IqEoZeJ7+HcOWTJg+ecUS7dNU10Nq8XCfDVW/duk8gHfgqRuGPjdguHMx99+F/cWLQ0ZNWv6VWHRBZcWctd/jUwy3cXDngUD1RZybVovlZBzwJy4xiqnEMIRtFhB4sZ/euRG79WAcDYsMvKjgjqqaixidYf4PYxbdtK5rYFtoGcSstDCOU8PmWowgtBiEYWqBjSqXDEY9sIZyyT5Va8F1WSdnX3a3l5iXmy9sL8bjTHbZiA6HeE9b9Y1WEzwOHFCTMjRATAaUnJhoz4ZdiZum3YUuq8U4CcDh5cMbzJp7oo9iieTPA4c3nX2Uk6rWe2tiZAwsMo1zAbyQsGrF7vVjhQU4WQ6DC+z4BhFgBbTePDcI5wlBGMMTaB9gbI7c4EYcWSFnUI+BL9p9ftNtdW30gjfjxeOnGTEETSArmF2gwhpfoNClx39ZCn100xpt0zriMUDA9tB6H8G5wKDQcF095+3ZyrmJc9CMd9WmDDwPzDFhlYh5ivHZdDGfHEk03z8WjpsC+2vdypwuQ2svMXdYMWV2I9YBwwHZ3DC52D3rPucHu2DD64Kxk00qj7E9FwyCUyN1Mym0suv+wcP9MKGzc6sHQsRAQ/apr3J5hScmWsvBJ0LiHQ9hm9b/7N3qZOXMyS0tKwQwAH512LjG3X6GOc61QSGi2iXYp/5jfsRaGcPIc0KX6PR7H/067QiWjTeYMDSICmg7IDQcBzUAMWOGH42dfEf3nofzzn2emiz6szFKYikErrqgp5gWHYvhmFFAjEE9743rDTy/TE35ICUBpCDetYV9WreGL1/wAjLEysuOnNM42VQUe3XYWPGyYWHU5J7Y3lklJWLynzLTsZVei8Hj6IpuCiNR1CQ6MKi48soqr0J7XjzE4Z8GnKIBKLRwsDA2p5r3sqU9KXYxw3HLC4NHT+4agxZV7ofZx7mKsn1nc5Lzc/Fa4nB27OLDixobFAxDbxzO7uvpZd6tWX5FRVZZMSypkvPO5VVWlFVVQ6MB/zpwkHFdSGion1/DNn1jlIfj2uA3LKXgfEFFha+XJ0w5B3UMxwvTRLvalGvH5l/hFkUZgBvDWrhyXZVx/DnT644YM2OjJzQX14eEuaKTb/6NzRoSAdcRaGmUoSGCDxq+Zjj2GUfRwGcs3PDDTry8qgoqQyzjwfS4W2AQxucjwjtjc7eZ00C1nBkgAlczAi2WMq7mRuWzE4GmQ6Ae3VXTFcyciQARUBEBUoaKrcY6EwHLECBlWAY9CyYCKiJAylCx1VhnImAZAqQMy6BnwURARQRIGSq2GutMBCxDgJRhGfQsmAioiAApQ8VWY52JgGUIkDIsg54FEwEVESBlqNhqrDMRsAwBUoZl0LNgIqAiAqQMFVuNdSYCliFAyrAMehZMBFREgJShYquxzkTAMgRIGZZBz4KJgIoIkDJUbDXWmQhYhgApwzLoWTARUBEBUoaKrcY6EwHLECBlWAY9CyYCKiJAylCx1VhnImAZAqQMy6BnwURARQRIGSq2GutMBCxDgJRhGfQsmAioiAApQ8VWY52JgGUIkDIsg54FEwEVESBlqNhqrDMRsAwBUoZl0LNgIqAiAqQMFVuNdSYCliFAyrAMehZMBFREgJShYquxzkTAMgRIGZZBz4KJgIoIkDJUbDXWmQhYhgApwzLoWTARUBEBUoaKrcY6EwHLECBlWAY9CyYCKiJAylCx1VhnImAZAqQMy6BnwURARQRIGSq2GutMBCxDgJRhGfQsmAioiAApQ8VWY52JgGUIkDIsg54FEwEVESBlqNhqrDMRsAwBUoZl0LNgIqAiAqQMFVuNdSYCliFAyrAMehZMBFREgJShYquxzkTAMgRIGZZBz4KJgIoIkDJUbDXWmQhYhgApwzLoWTARUBEBUoaKrcY6EwHLECBlWAY9CyYCKiJAylCx1VhnImAZAqQMy6BnwURARQT+H8841f+ERDFXAAAAAElFTkSuQmCC;" parent="1" vertex="1">
          <mxGeometry x="342.09" y="-270" width="126.91" height="54.59" as="geometry" />
        </mxCell>
        <mxCell id="dwARR20L6FCNaaWJkSE--52" style="edgeStyle=orthogonalEdgeStyle;rounded=0;orthogonalLoop=1;jettySize=auto;html=1;exitX=1;exitY=0.5;exitDx=0;exitDy=0;entryX=0.462;entryY=1.006;entryDx=0;entryDy=0;startArrow=classic;startFill=1;entryPerimeter=0;" parent="1" source="dwARR20L6FCNaaWJkSE--48" target="10" edge="1">
          <mxGeometry relative="1" as="geometry" />
        </mxCell>
        <mxCell id="dwARR20L6FCNaaWJkSE--48" value="" style="shape=image;verticalLabelPosition=bottom;labelBackgroundColor=default;verticalAlign=top;aspect=fixed;imageAspect=0;image=data:image/png,iVBORw0KGgoAAAANSUhEUgAAAKUAAACzCAIAAABnxksLAAAAAXNSR0IArs4c6QAAAERlWElmTU0AKgAAAAgAAYdpAAQAAAABAAAAGgAAAAAAA6ABAAMAAAABAAEAAKACAAQAAAABAAAApaADAAQAAAABAAAAswAAAAB0AhhXAAAa6ElEQVR4Ae1dB5wURbqfDtMzs7uEJYioZNglSBaVjIoCIgp6hlN8PsV46tN7nul5nuHpe3fmiDnHUwQxonIqiiBBkeiSlhwEXNgwucP9e1eHYWJ3V1VP7870jx/bU1311Vffv6u66quvvo/TNM1VuPJGAnzetLTQUF0CBbzz6z0o4F3AO78kkF+tLfTvAt75JYH8am2hfxfwzi8J5FdrC/27gHd+SSC/Wlvo3wW880sC+dXaQv8u4J1fEsiv1hb6dwHv/JJAfrW20L8LeOeXBPKrtYX+nV94izY3N/jxS8H3n9ciQZvrTahOOKKLy8UpOysT0m3+ybdqV3LxX939httWr614a8G6aMUPavVeV66NJKVhE7SqPfKG5bYJOmVFSsgvb/5Z7H0sJ7pTZqCeaOt4ruzYqO7aknOwOY/PO+J0d99hnMdLXaDmCKpqdO2Pmr/aXCmC3DbirWny5grlly0E3NIpKvY6hi89TGjfSTiyGx2KBFSiFUvU/fsICJgrah/emr9G3rhSC+X4yw3xeI4bh//5lm3d5YPNSYtBbq3mgFyxhAHh1CTtw1ut3hdd91NqLmxM5Vu0EssHoULOVyJ07c35im2sPHVV4UWfp37AINU+vOVdW3I+H4YAxbJBfPPSBkmKHcuFwzsxkKo5kugGStUv5spYzW0X3poa/ekblxy1yielcrwglg/mils0kBPad+EP7+ziOErUrZKJhMLffWS1sLlyNuGtyXJk2TxzrDHIzbdpL3bpFVv8YDB3lw3AdJ1BVeZIhr+coamquTKWctuEt7xumbpnuyUOaRbCnFxsf8gA7u47lCtqRrMOS7SUXZuVbessFTVXyCa8Q1/NMMcXi9yCKHQs41u3j6ctdChzwifcpaqRH76MZ4zRvR14a3XVkSVzGTXAOFm+WUup17EuXogvwvG8dOzJ8Sm5ucf8ZuVC6B9Z124H3pHl32oB5i3JKimuZRuxbGByNmnIyS63TerM5NpjKereHfKmNbGfjG7swDvsgM4N8bnLBvLNWyXLUWh7hLvP8cnpNqeo1b9CH8W6UuZ4K3u2KZWrWTfDCH3pmLGpl14c5x092QgFpnm0UEDeuEqr3c+0FuZ46xtidQeYtsEIca6khbv3kHQ53X2Hc81bpntqW7q8bb3yyzam1bHFW4tG5LXLNH8t0zYYIe4dNTnDOhsLcanPMCN0mOZRdm+Wt2/EXJ1dLWzxxppbX1aqCrsGGKLMcZ4TzsqQExoYd79hrlzr2VyRcLRiKQb2DKwSPmKLt7Jrk7JzEyGL5MXFTj2Fo7pnogM9K/K0PSpTHlueyWsWM12VMcRbi4TkylWYdtoiqEyVSANGccIhy+7k3HzbI8Ue/ZPTbU6Boi26+Wd2lbLEu646WvEjO9YNUoYRi3vASBeXpaXYNBM693LZZVeUgfnI93MyPCV8lEUKJNSVX3fbsKDMyqHYuTff5ois2aB3c3fpI7Q+PHtOxjmiP36tBf2MKmGId3TlAi2Q+5m5WDaAb9HaiPiStetGSlHPo9ZURZZ9Q51sA0GWeC+1YwMgs1z4ZqVi176c19COJyycxG59Y7ulmSkzfRqe/yEj+qzwVnZvia53gPVS2yOFo2CUaGylxXHSwFEuB2yHR1cvZGTxwgrv8NezGL2hJshyPJZhwhFdjRcRu/dDLzeen1XOaFRePp8FcSZ4Q60Wnv8BC3ZN0eS8Re7ygZzkMV4KRozSoDHG8zPKqcnRyIr5miJTp88Eb3n9T8q+ndR5NUsQhitin+PMlvKMOsNsEfr5NVXZjrMZm6lTZoI3VhRMlcAGpSB2KhfNDOYNZHVFm/lSBlkynk2t+kVmsK9IH2/VXxNZ/X3ODw1BstKQNBugmaUOZbsDurhaWxXF8YxIKDOzZp/Sx1vZsEI9kHsdKj7e0pCTzIqjIT8+4ShurSy1UppL2VKh7ttFjWA9Idp4ww5r/XKtJvd4w/CUb9HGmrAE6NK79LZWlmIpefMaqNPpjpSU8VYP7AOXWiRMsdnWSHlHT7FWUC/l8TnBwgl2AzixjLm69YYklaSMt7J7q7J1XVItdidwpW1JDtFzbknsOYgrbm4330n1RVYudFH9hFPFW1WU7RtgsJbEtt0JEjwmiBJJrcJhHRwxpFeuxLYTSUMSytLEG7s60Z+XuJRcW7OIor7hLRK5roCnDSzMXDxN+SSI3tDPaDSyiOb2KM32YCUWXbPIUDNYZhLaddStWbJteGdmAcZuYtc+XEnujRhD8z/E6bvM3Bp/ShNvGSuxqj3G62aUU9eBt2pHThx7ZQINOoScwAOKQs/PDE28w99/SnfxYEVSolvo1AvboFbKHloG3j50hx85Py2saSF6p4Wp4a3CeunHbw6VWA5+Yens7tqHFki60aoDLJyiy+fTsnihhndk0WdamKEhraF3h+N4fLw7lhnKbCATFnWcN/cOP2DxAjtlA/xmz0IN7/C3ud8ARV8Uux3N05tkCa3bZziVkl26lHLAIj2C7XAaTuuIFi2x5uAUjLyr0uUxsdMcK0vxBhoSST82YMyaxUjF2DsZc1bkp9x7plB2blQP7IUbMSNcZ8jDUYkHHZr7T5z49Y47v96DHT1xZ2A8fx5pGsbz0BdvwTxe6j+SsN0UxnPdGGP5fP/r/6i9/2p9s8QBynNCoTinuD6Sr/iu5u+XB2Y+rWxZS67LojCe46C6+stWfF3AmVK1yzvuQs+I03gHKJ+dA5s1TpS9O8LzZoXmvKZWV4ECvAHgpK1B2+p0NVLAW9m6FttiegWwwtm2IfjOY8qmNUV//DMhZ+k4zot0+B7dtDrw3vToiu9ixwdh4aTVVLmM2dKnkxLxeA7Otq3HByZWgVrza+jr9w78z5nRVQtjiYUbUxKILPmi5v6rI0u/jIGN4vLOjUo1qadVUrxxmFGFaWKCJaUiq3t21jxwDbydw20qlYWEKXk11szwwVZdVffi3QBbl2rCOepIWNlCeriadDzH8U9ld+oNUCAdePMhfHV8Ey92wt6iw18CLRqGl7rg7OcxDUrHqrL5Z01RYFafLkPWdGK8a/frb2KaC+Z24W/eV3dv9Z58njRsIuwI0mTM92QtHMSaFv/gIj7DcChvqUjs9CYlR4q3VntAOZBxT0xzwaW7fqy5cnXR6dMS3N2Z5LZpZodw/K/fF129OKvje2hdsPrN4Jgkq4DIvt+KrOzb4Qpnt5nVNQafvV77+I0yFpGFKyYBTQsv/bLm3kvgjzAr2CikhUM4mBcrbeGGCG8ceFH3ph3ME7lRlOjqRbX3XRVe/LkWYnW+ObFSB/9GHwh88Lx/+i26TybDunF123qSNpGN56oCpa6p6mHdVvvwdb5xU/FF14MEkVmhmKraQZkRtqRyZejT13Q32CbNv+QdG0l2KcjwRv+2YE0ny8FPX5W3rvWOm4rzt5yU66Ax9r4IWMGGF3wa/PQVXT9q/lLITiAQ4Y3lolZjyR8gXvBVi5QdlcpJZ/smX5E/kOO8SGD2s5EFn8RrqEyBrlnoYHEVEOGNsUixfJQEL0vVL4EZ0+WKZSU3PM4X594JeZxYmNzCl17dYzfgPIbxr3UyH8qvRCeMiOZrUJi7CD3LaGpk5XfVN58RXjy3CU/isM8BPUT17edCK04CNuDHAjj5JTCeQta/MZ7LEeOVpcuJCar/2dvlsed4x5wltOtA02AhXZW2pauKvHU99rhCX89M1Dpb4kHvFZjMW7XpIMJbt4s2Ob1M10ZEqwp9+CL8dxVNucoJJkTp+DSXLkfDiz7D5FTZuIoK2HrtMFBRZMtOhcjwjtI8FwjlKwwxa7dt8J16kXf8BY19EgenJoF3Hg1/9Z4+NTO8vDb0PkUjlq1mifCm3Iz6l1f9dZf/zQcwqSmeehPfCuZajdA6Cj1wR2XN4zcwcvyuuTTLQiHC25QrHENvbkMmRYa7H1h3FJ9zndhzcOPaZYEdX+THr9CzFUTGZXNxonWNC9n8HGfyLL9pmWWhueSKH+qeujX4ycvqfnMqvMyEmT6Fcjvw3pP+l+5hBzYETnIUkqx/YyMW7xrVr3g8HujisI7CsTTfpGnuHgMsT0rjabK6h/nesnnB95+Fbyq6J/QTGOakIhI5EOEN7TdXVKJV05y1JTQP1q6RxXOVbet9Z/7JM2wCR3aqO4E4rZ/67vWcN4KfvKJW0TyrnZI9rlmLlOkGEwnx5niPj/lxb7gR2FFZ9/St6u4tvjMu0+ftVlefBoViIhuMw/ft9L/1YHjBJ7SWpplrF1q1z5wh81MivOFEnoO5pD2BIqPRwLuPw3Si6Oxrxa5Hs5oqZpbWoU9hTAh+MDWTbYxzjcA7h3Jh7hfZfI0XyU+4mOIX9rn+l/5X2VphqhSjzHD4XfvI9XaCjYbwh3ckaQ4Z3oLAl1I4WW+qAbqJrpD7cIA6z5IHoTJNMU+eWcgh3hwisLYh+pxYaD8aLHToYaEg9SLS0XDxliJgIfWK4gmKcEFAcBH2bxHnrW2dPfG8u98Iy9pjAkGlKiqInjFnpnrALI3nhY49SaiT4Y3z9c1L7Tw3xLk9TvBXHZO4Z8TpLoFozhsjZeSGP6yDwVgN6aiR4Q3tdklLO02MhR79HRGu+3dxCkd2zxLZ7PecVP6KcF1BcNgAPJDijQ+YcJh9Ydq88FzsnMU3XndRkI45iQqWRojoLsKyBVLLTIcY72ateODNSIuewLskeY6fkJCW458c7+4Lnz62DOkcJ3bqleP+7RIEOK3iiu3wSycNOhGBXXMMcFL1Qut27m79kpLpJwjtOvEIj0Y2vJH2bzQLAYDsWJbwvOfYsfSlSEwRXrf1QJRkMBjhQpdzc1K/chTwxoqQ15W6bMd0vNpClz5G5GJzHnjGh1Mo5p43OQ5+xrjmpMt9CnjrYWF69MPAzlTQ7rJBPHFrmXAIJI7qwXrSyjdvDf+9WI4SNoEC3uDAM2g0Wx2IIMAhOU+2VUAoqQzFReB9ZFemQzqGN5GGVpEO3kK3ftxhR2SQCOEjROaGTAmnpoQ8ZCouiu5eQxh6YoRarVMZlahJdPBG5/aeeG4miZA9w1SlPiwkGRWWpXW8i0oY1cB5iqQBo6l8MengjXZ6h08k3JpNJyxsdesxnZsbivGbjgjrdOziiB3LGdXCl7ZxHz2UCnFqeGMjXDp2HBWeEohwxS3c5YPohhqAFxTKVmaCqIc7Y3NJx40nX4k1sEYNb5Dzjj/fJdH30MK1aCX2OoaaJOFAbOem6pvOqHvkzziwSNGEXho+0SXQlOdvTRYE74QLaTWfJn/wPS4NHEOLsxgd6ehhJB5LYnT0kzh11eFvZ9fccxFOn8PNRM0DV8OolFYMP76omdR/9MHqKN15TzpXIHaTG+OFJt56g4eMRYjdGHUqN9LxdD4Tys5N/nceq3v5/9S9u3TG0NHXL6977o7gRy/BqxgVVj0nUN4Oh29v71iaE2GaeGO95C4frCsX6V1C+y7YFCKnF1n6Vd0zt4Xmvq3VHuKgANalwZlP4VF07TLysd3d8xhdxU3vcg8ZK7TvTI8e8X5oAitQM+nBN+mtTKTjxxMqleA/I/Dmg3VP3RL9eakLJ+2SLliPw3Nl3fSbQ1/NgNO7pOcmErhiDOmjTBTImBVTYH3V4/FlzGXuIdX+jaqxqzFiEjUTAJ73nkwwmsF/7+6ttdNvDcx+Lov/DJzw27mp7vm7Av98tN4EUTMnxd9zQw/h7jeUjhMijpMGn0h9J4Y23kC8RWt9PkljS1js2lewOjzqvXbJv2AvHPl+jlGfhNFwcPZzNY/9d7RimcWODleXelSjrr+/ANb/8pj8Hn8K9iask0hVkj7eqMVz3HiS8J0xPusDeFvhEC7ZAzOn1z3zVzgQiFEzeBNd9k3dE39BPAGzrsYa6GMQ1gMTEl68IA0YgckQIZnk4lakmUwlIQUneIun3sw1IzKCwNTUjWW32X1lePVb9T1G5uAHL2QZwxOYjvsJ/yKBdx73v3YfPOxgHh/3JPst36wlAtURfnRx8N132jQWMciZ4A2piEd1L/rDNdnFkz6H0KmcN2vcrsihb2fXTr9ZjzBDFkYZzp3hDK/2wWvg1jQ9j6me8IIeI8nqZ6iBYvHUGxmZZbLCG/3SM+xU6ZgTTXfQhhbDVqvnYBMB2zUVjouwtq6bfovu4lNVU0FhMg3eYbdvqL77Qn26Z8aLOwwT+LZWbTgxTRs6wTN8kkW5ZWsiM7z1iVsb7/gLEVg5Gw8pnsO0Qd/elzwpniUlwWVR5Kdvq++dBjdI5GvoRPKqFnj74bqnb4siiKexMUP/EpUNtOaWQuxUXnz+DYk80PvNEG+8oe6egz1jplj4DvGHdzK43YRZFRwgQU0mV5qemhkVIwIwLf7c//xd8KkFLzxGSrmPPs5l3k8o5nq+0y4R2jC0JGCJN0zaPD7v2PMQjduIjA7mwSewQw/dEVu2S180P3cnFlGYkNPv2fG1q6pcucr/1kP+5+804l8EUzbeJGxQK3mG4gt4kmXfS/H8prtnizdq5Vu2Kb70Tqwm03GQnA6jYxEboNkCtUYWzjnwt3PrPYfXJhNhkYLwQAjFU/3/l8C3TGb6eNGlwWMy50l4CtWK78wrESIxIZ3uT+Z4g11oYJrfOJ1v1dYg6zw2vHsPSZsZjlf37/G//XDtkzdr1ft1n552XqqqbKqoeeT60Bdv66F40l/ekZONG2DxrdsVX/I3G07i2YE3ZCJ27lV8/o18S0OQYz2TdpYHx8rw2/Ti3Vhe5zAcMbyA+1+5F2489IAiaXzpwQBL7Fye/n04+AQHdJpdfT9mageTmN0Jd955JzPicYRhtNuuI9TLypYKaDrjHqS4LTrveizfkx8gBnboszcQWVFes8geZynJPBxMUWTMEBF9CbNRrJVxFP7go9/v8EbCY+Tvv1L/xUq9+IK/SENsOoRmU/9GW/FVRkwD7OZm1j3BytPdd3iybJRdm6EfhQsXhDM0qfJKJkYpBU7i1i/3v/r3wIwnEWUvmah7wJjMB6AwgBdNvlI69pTksoxS7MMbDYAphO/sazELzdAY93Fj+YTtVE2NrllS89C14QUfY3MzQ9mcPMJkAm7Xah+9ITnygFBaf9QoDVsYGLwTLvKgAxhTM6QhYy7ZVrzBGsa94svvho1O6kU5NkAxzYm7YJ4Q/PzN2oeuVTan/VLGZc/RLd5IRPG94/zwD1/Cn+ZBJjxF+liVagtAf/UnXuybfBmJs8SDFRm+s+v7HccQTjBj9wxWY1g9uw79lmPmgo/3bwYOioLdrcC7TwQ/egFf7jgCDr3FdD0KvMMh2PHpR2E4eL8QoJ/BJzw+DCi4h16laPIVvsmXp/zqM21eilkG0/oaiGME0z3nlTQPwXasIbZw/QOp/4gGsAEwPIcjgo9cudrsDpUN/KerQgsGQnNex6TdN+kSmFnqh6UPOxJHQ+K3VhGVyTflSu9IWx2BxBjODd6oHj0AUan4klL/q/dqgfrui37fdzjm8GpddXDm9NC8WfWxG8xtR8Yalqsb3Yv7igXK9vXYO/Cdfhnf6nCxY8/oyoUNWzhwyFE09WZ336F2en2JFwUHI9343/bfyxuW6+Fw9+/BGr3kmvvwYau9/2o9zkfjv2CQVHLlvdGfF8NjMoYxoWN5s+seFDuU5bBluccbjYcbaf+r/+CKS7AnFpj1jB7VvGlc2NXt0sc7Zkp44afo6MWX3oGts9y2zBF4QwQ46gE38cGPX8GWc24lQrl2OIzrO9wz6nTYeHEeL2Xi5sk5BW9wrgVqIysXBN99QldSNo0Lh8r6j/SdMU3sYXE7nLoYHIS33ja4vq7aE3jjfj2wZq4nFqSy5jnfpEthhsa3KKVjoUzKkF7eYXjXNwk+7kOfvxGc9bSK2GqNEXWexwq75Ip7pIGjaWBEk4YT8dbbp8gwUYIhQ3Tdj7nfGjEjcCjM3f1HFp31J90qOZVmzQwx+nmdind9SzF3C859KzLvA8RjpN90BhSx2eUdd4F31GRC+1QGrP1G0tF4g0fdFnHx3MCsp50/b4dBbfE5/wXLHCdHynM63vprCUX6trX+Nx7AngQdQ+Pf3nV6f0TJN/Yc35QrdO//zhvD49vZGPCu51cN1ATffhTmY07bO8GhCOhNvSed7eRuHYO80eANjmG4hriDoY9flrespRZ+NSYJCzeSx102wAeDhX6pNz0tkGRdpDHhrcsCThk2rwl+8mpk8RfQz7CWTgb6fKt2CG7gO+WPdrp/z8CPwUeNDW80CyG/aqrC330cmDVdO5DCishgy61ngy1e556IWy0NHMXQx551/jKVbIR4NzQHk7jt6+sevl7egSOctl7wSVQ87Xa4fKTrIsyeNjRavOvFo/lr6165N7Loc92ujbUmDuYqzUq9p/4HZmfWzobZg2jmWho33mgbkA5/+0Fwzhv6Ap3Z2QNY3Yjd+/nOuFQadILDV1xNHG8dcjkqr10W/PilyNJ/sejlMK30nPAHWFLrVvG83RaemfEz+7TR9+9Yg7GDDl96gfefpRvzjyttWzL1JvegExzrjTsmASM3TQdvvbWqEln1vf+Fu3TLVxoXVKTNrntY9xnkbK2Z8bY2Lbzr261sXed/59FkK2DjQgG6XPNSmJD6Jl9hwseEiQpylrUJ4g1ZYj8t9Nmb4XmzcArJgmjF7n29p1zgGToh9aEICxQdU6Rp4q2LV8HYvjCESdyKBSaUr27JO2KSd/xUeFxv7FOzlO9Y08UbzYV/xb07gh+9HP5yhpHDw3BN4JtylWfkJKyzUwqrCSQ2abzr8anfZfnQ/+xtWhiuV9IY2+sxhroVT7tLgp+BpjI1S/l2Nn28G5qt7NhY99I98rplydupCB0GTTi8Ipn1uJJSoA5PzBe8AQOOsGASF5o3E94ZflPLIO7PUd19p5zvOeGsRrF7Tf4y5RHeEJZu4r7iO1i+4hgidODuAaN8E/9TD46SzTcQuaAdQiG/8NaFDhP3fbsD7z4Gk0Lf+Av1yKdc41aRmnqT8g/vBvEosj4vI4udbkrQDsmcr3g7RPy2s5FHQ5ntsnVihQW8nYgKO54KeLOTrRMpF/B2IirseCrgzU62TqRcwNuJqLDjqYA3O9k6kXIBbyeiwo6nAt7sZOtEygW8nYgKO54KeLOTrRMpF/B2IirseCrgzU62TqRcwNuJqLDjqYA3O9k6kXIBbyeiwo6nAt7sZOtEygW8nYgKO57+DRgGnWMNUuo+AAAAAElFTkSuQmCC;" parent="1" vertex="1">
          <mxGeometry x="193.5" y="-49" width="75" height="81.36" as="geometry" />
        </mxCell>
        <mxCell id="dwARR20L6FCNaaWJkSE--51" value="Auth0" style="text;whiteSpace=wrap;html=1;align=center;" parent="1" vertex="1">
          <mxGeometry x="186" y="-74" width="90" height="40" as="geometry" />
        </mxCell>
        <mxCell id="dwARR20L6FCNaaWJkSE--64" style="edgeStyle=orthogonalEdgeStyle;rounded=0;orthogonalLoop=1;jettySize=auto;html=1;exitX=1;exitY=0.5;exitDx=0;exitDy=0;entryX=0;entryY=0.5;entryDx=0;entryDy=0;startArrow=classic;startFill=1;" parent="1" source="dwARR20L6FCNaaWJkSE--53" target="dwARR20L6FCNaaWJkSE--63" edge="1">
          <mxGeometry relative="1" as="geometry" />
        </mxCell>
        <mxCell id="dwARR20L6FCNaaWJkSE--53" value="&lt;div&gt;POST /api/v1/predict&lt;/div&gt;POST /api/v1/predict/upload" style="rounded=1;whiteSpace=wrap;html=1;align=left;strokeColor=default;" parent="1" vertex="1">
          <mxGeometry x="340" y="-210" width="240" height="50" as="geometry" />
        </mxCell>
        <mxCell id="dwARR20L6FCNaaWJkSE--75" style="edgeStyle=orthogonalEdgeStyle;rounded=0;orthogonalLoop=1;jettySize=auto;html=1;exitX=0.75;exitY=1;exitDx=0;exitDy=0;entryX=1;entryY=0.5;entryDx=0;entryDy=0;" parent="1" source="dwARR20L6FCNaaWJkSE--54" target="3" edge="1">
          <mxGeometry relative="1" as="geometry" />
        </mxCell>
        <mxCell id="dwARR20L6FCNaaWJkSE--54" value="&lt;div&gt;GET /api/v1/recipe_ideas/mealdb&lt;/div&gt;&lt;div&gt;&lt;/div&gt;" style="rounded=1;whiteSpace=wrap;html=1;align=left;strokeColor=default;" parent="1" vertex="1">
          <mxGeometry x="340" y="-150" width="240" height="50" as="geometry" />
        </mxCell>
        <mxCell id="dwARR20L6FCNaaWJkSE--63" value="" style="shape=image;verticalLabelPosition=bottom;labelBackgroundColor=default;verticalAlign=top;aspect=fixed;imageAspect=0;image=data:image/png,iVBORw0KGgoAAAANSUhEUgAAAfcAAACjCAIAAAAYf8AlAAAAAXNSR0IArs4c6QAAAERlWElmTU0AKgAAAAgAAYdpAAQAAAABAAAAGgAAAAAAA6ABAAMAAAABAAEAAKACAAQAAAABAAAB96ADAAQAAAABAAAAowAAAABlm1V6AABAAElEQVR4Ae2dB2AURdvHJ703EkLvIEWaKIqKAqKiYq/YsL22z957F3vD/tqwd31VBFFUsIAVVKQI0ntL7/W+397czc3t3iWXBJKQzIiX2dmp/539z7PPPDMT5nK5hHEGAYOAQcAg0EIRCG+h7TLNMggYBAwCBgELAcPyph8YBAwCBoGWjIBh+Zb8dE3bDAIGAYOAYXnTBwwCBgGDQEtGwLB8S366pm0GAYOAQcCwvOkDBgGDgEGgJSNgWL4lP13TNoOAQcAgYFje9AGDgEHAINCSETAs35KfrmmbQcAgYBAwLG/6gEHAIGAQaMkIGJZvyU/XtM0gYBAwCBiWN33AIGAQMAi0ZAQMy7fkp2vaZhAwCBgEDMubPmAQMAgYBFoyAoblW/LTNW0zCBgEDAKG5U0fMAgYBAwCLRkBw/It+emathkEDAIGAcPypg8YBAwCBoGWjIBh+Zb8dE3bDAIGAYOAYXnTBwwCBgGDQEtGwLB8S366pm0GAYOAQcCwvOkDBgGDgEGgJSNgWL4lP13TNoOAQcAgYFje9AGDgEHAINCSETAs35KfrmmbQcAgYBAwLG/6gEHAIGAQaMkIGJZvyU/XtM0gYBAwCBiWN33AIGAQMAi0ZAQMy7fkp2vaZhAwCBgEDMubPmAQMAgYBFoyAoblAzxdl8tFqPwNcNsEGQQMAgaBXQeBsFbCZaqZYWFhPB11KZ+UvJS39GdHuB6o+/Voxm8QMAgYBJotApHNtmY7pGI2+uZShsjMpZ9f6Lu6ulonceWXd52VURGct0yIQcAgYBBoPgi0ZFk+IKEDPeE4aFp5KisrKyoqqqqquEt4VFRUZGSk5HF+pUfekr+2EJkbt4wzCBgEDALNDYEWyPI6gwM3l+q3vLycy7i4OBkIuSPCx8bGwtoyRD4eecldHIwvL/Pz8+Pj42F/4kiW51d6ZAg5qEuZj/k1CBgEDAJNjoAfuzV5bRpeAUnW8lcqYfhFSI+IiICyIXRuhYfXZ85Z5obITw4yE/KB1vGTuV5zw/U6GsZvEDAINC0CLYflYVsJJXSMh0s8uJiYGCmSa0B7YnpCKopERYGoKhHVFYjpIjxaRCWIqBQRESWIyGSt9WvN2SpHtjJ/mTN+OXJI3icaIYbrFVzGYxAwCDQhAi2B5aFUEJS/in8JkcoWjW1dorJIFK4XBatF/nKRt0TkLhK5S0R5nqgut6jcygZCdwmE/fAYEddetBksUvqL5D4iuZdI7i3iMqwxwCJ+j6NQpHul2KEs5bxRzF+DgEHAINCUCOzyLK8oHo8luldXR0dH86tpUVzCVSWyF4nFT4sNX4vKfIvrq8vqgnqYiIgVkUkivqPodZrofbqI7+BO7qF7NEJI8UVFRXw3KJaXnrqUYuIaBAwCBoEdj8AuzPI6v0uKBx5mR6XyxIKqqkxk/SHWThfrPxNZf1tCukdcbwiOYSIsWnQYLboeKbocIRK7izCPlp86INfLAUZX4BAO4zekSJPWIGAQMAjUG4FdleWhThzN5tcS4N0ivEamLpG9UHw3UeQscDO71MUEQSngzVpp2SL3SNHzDLHPAyI2Q6lxqE9ZWRlfElKWV0OOVrcg1TDBBgGDgEFgJyCwq7I8tG7RvMsl7Wckq1r4IL+vnSqWvig2zHQL74Ewi4wQcZEiIUZER4rIcBERZv2GI6S7qb3aJaqqBb+V1aKiSpRVisIy67fKpSnkVbZhIiZDdDteDLjYUuJ7Y6Cpx8laKblepTEeg4BBwCDQaAjseiwvyZ1fiB4CxSNt2IWrWhSvF3OvEOs+DaCZgcGjIkRijOiQZP1C4ojwtQrsPAeiMQAQP7dYbCkUJeXWGOAU/8OiXHvdH9b3PyI6RT48KoZQTw2lk6I9gUaob7TObQoyCBgEQGCXYXnJj/zipCBP7dUKVcsO8q+HxJJnRNk2+3NFTs9MFMlxIj7aEtsb6JDui8pFVpHIKUFb5J9ZuGgzROxxp+g6XoRZFvRUlU8N+bUBuUP3BBqW9wfNXBkEDAI7F4FdieVBwk3yFssjJicmJrqxcYm8f8X3/xHbfrSL8LFRok286JBsCeM73JVXiXW5Ir/EUuzoDlPLwTeJgVeI6DQZzIJbPFC8IXodJ+M3CBgEGgeBXYPlIXfgkCK8VNR4tDSiWqx4W/x6oyjZ4IcXmvduaSIZ88f6LHP1y6qGCyqFvn5rodiSb4+VeYAY85ZI6CLDqTNcj5pecj10j7MnMdcGAYOAQWAnILDLsLyU4tF+4MEs3YKislgsfVnMu8myf1cuIlykxonOqSLab9cBdX/He6Dr/DKxIU8UlPplHtdJjHlbtD9Aqv/lbmiS6CXX+0U2FwYBg4BBYOcg0NxZXpfipd+ji2eude6lYtkL1oon5aD43TJFIstTG92htskuFau3+SnrI1PE2A9Ep4Ml0TNEYXgDxUuW57fRa2kKNAgYBFodAs2a5SWt84vGAwcteiwmy3PFrzeIZS/6KeLT4kX3NjtXRVNr98gvFWtzLTscn4sQB04Rvc9QRI/qhoFKEr1R3fhwMj6DgEFg5yDQfFleUTweP0UNUvzPl1vmNLrrnCY6JvvJ0frdxvRjVr90qyjSd1AIF+O+dEv0Vj0Q52kOLG+IvjEfiynLINBqEWimSgOYHTmXXxxSPI+H3Wmsh8Sip5+vEkue9T0w7Ge6p4v2Sc2C4qkWxpr9MkXbJF8NmSKeebRYN0PWUGqcZNO0OMZrEDAIGAR2CgLNlOV1iocQvZoNl2VR889zPkUNFN8zQ7RNCGl9004BMFCm1AoLHzRIylWXiO/PthZtuR2bZTJ0yQFMelRE4zEIGAQMAjsWgebI8lLOVb8Iv9Ci1ey108TPVwgXu8C7HWTaK0OkxXkum9UfDG96pftJ9GVbxFdHi+KNVJNBi08T9DbyM6VZVdxUxiBgEGhhCDRHlgdiXc5Ff22BXrRW/HylqCzwPQDMJTGabLYOi/iuqSJJq2HOn+KPe0R1JVWWSnk8qqXNth2mYgYBg8AujUCzY3klwkv680jx1ozr1aJwpQ/rDinWvgXN3PG10SfD2jZHuWUviX+elxonxHmEejmxzH3aq2IZj0HAIGAQ2FEINDuWp2GK6PG7BXmXWDZFrP5YkqPV8hTWPaXYTumzwpuhYzK2S5pv/xxXpVjwsChYQ03lZINsbDOsuKmSQcAg0DIQaHYsL0VafiFBDuO2UMY6fsGDvm2E0YR092wRs2s8A1Zp9c70jUnF68S8WxnKqDzm//zSWDkHK9u+azTK1NIgYBDYRRBoRiwPx0ma4xfWw1kYoquZf7coWO7BE4rvmW7tC79rueQYkapMblxi5dti3ee0TU7DYkHvbrrF+xKBXatxprYGAYNAc0agGbG8hAlyh+lQ1HgM5DnSb+GTsJ8HxKTYZmpUU+tD7tpGNcJqzqLJ1pHibpUURkSS5T0DW61ZmQjNDwGeIMvd5IDd/GpnatSqEWheQrEiO89OBrDhP/8V4W6hnsfEZGaXVJ/qI4QH5x0crKgYNzbQNSi36DDRo6210Y10W+eKbb+LdvtRLxrLRspynhkEEPAbWE+TvDERgNxfeePdb2b9uGbdep5d966dx44eedbpJ3kMBxqzKqYsg0AgBJrRDgdSiucXgQhB3tJZl+eL93uJ8u2emrdPtlg+ZJdVGP7LwrgPZyXlFoaPGloy/oDCnu0qGCnq54rLw/5YFvvht0krNkQN7Fl24iEF/TuXx0XrzF9bxuxE/89W3y43KYPEcb8L9qMXoqSkRK6JlRaWhuhrg7K53C8pKT3z/Cs+/nQ6w7OqE4/v/HPOePLhu2JimmLjPFUP4zEIuBFoFiwv3xB+oXgcm/QmJCRY1ZtzkVj6X8+TYsv4/u1EbKgfH78uib17SvrGbZHQunz/YqNdBw8vvuWsrOhI3wvpyby2Pys2Rd35UsbiVdg+ynlT63e/QSV3X7i9TYL3U6O2TKz7W4rFmu3ez4pwcfBn1sFS7s1tGNsY2CTLuy2LQsnOxGlKBOixL7369oWX36hTvKwQRP/i0w+dd9apTVk/U7ZBwI1AM9LL86rgYPm4OPdKoqJ1YtlrvseERj5kil+yJvrih9tt2h5pkbI3i9LysGlzE17+3HMuqze49r9llWH3TkmH4omqJDZy/mlh3K3Pt+Vu7VmoGJnxIkYNVNVizf/klAOCPMxO81XEhnskmO5x0/5Tc0H22Np1w2vVknIAxq9n/RgQTAJnfT8X5FpSe/W20ECtX9THGxA3vQjj31EIKMbZURnWMx/5yPlllZBHX7HpO+HStvDtEio7Q5XvfqtvFuarErc+np14wTG5dTr/9dPvExcs11Y2+fITvyyO/XZ+3OF7F2thNXoZETihcE22J9KGGaK6SoT7ngKvi6WqsoaTBinoSX73A5OnzfjGfYq5X5WioiKfefTePYYM9Av1XqA7GnfsmSWl7KlpH3KGDRn4/OT7jTbJC5W14iErJ1dd2jx5+QUtGKs5P/9+3a2T+AC1tTrESzYRv+fWaw4de2CI8U20hiDg45eG5NKQtPARjhz4heN4Mdzvhkus/4JDAD05swwqhq1s7LwTsFxXhOuvpW5D+0C3s/Iif10aO6JfaYgSeLVLfPJ90EW2YS4xb0ncYXsXh5ibVSPrnMIIUek+/KRoo1g7VXQ/Vp+DdePRIIqnEDJZtXrN7/P/dGLArGBBYaEzXIYwys7/c0FxcYkzQkK8tluD83arDGnXNj1Yu9NS6zCHFCyTZhuel58//48FKFfrV0Pe8ZzcoANk/fI0qYIh0PQaGzerh8HvEBN+j2VCVbnYMNNX6XSMzYNQPMFV1frNcFdYQUlN7Vq3ISp0Uq6oDMstDHq4IIXnFqFp8dXU8nFNlYI5NDb8kzXg989J0vxH6uIlxcvfYBmEHK5n5vMHRdKbL9X3xdZ8VruM0xCgu44ZtR+/WpjHS+DY0YFvOSPvoiFa16izdxdt8i5a7ZrYsNGaRB/hrZC/aKitcjd8JUq9pjXsVpYQSGEC52QXiFWbxIpN4t8NYlM253+T1BUuUhK0YwLtzXB17VQHASQq0tUmuYbcRGoC3x/eMpD8t+VZ9ZFV2p6nDz+eSETOSPCGu0TOQlGwilsgwAinXhdC8HvzNX+bKQITTjzmjAkneDqtt448xwvOOX3CiXyiGWcQaHoEmp7lFa/h4bQ8t2Tk3rhGUSfndMcEkqYLS0RWviU1E5N/XG7JsazpK8WQ3fSjmkRSfPXg3mVxMS7OhW2TXL3PAP9juGt8Cgwxx40qJHu0LG1Tq4b1LYuM8CPfvfpryh9GndxCS+aVlc8pRNQPkH1GvCcC98KqRPYiGYcPGqXoNBQfALfmF5SYkPDaC49P/WBKp44dUlKSU5KTu3frOv3j15+bfL8xo2x+j6uV1qhZ6OUl9qgsoDnLj5k8S1694q51HIdPWtaeU7GDrAtL0XeHRYSfclDB9DkJeIndq1PFk9dsaZ9WhY0N5pWxMdVhwbUpWu5er0scPbIgPr66R7uKvt3KqdSXv8bf8nxbeXvkkJIxw7xTr5C734mv7ijZ+dbeBrb6M9rwdVLoHoqYfc1dJLphT8kAZ62QksOedWFL5a2R+dusEOAxHXbImPXLfmtWtTKVMQgoBJpelpdVgdoQY5OS3LYxJZtFRb6qorCU8oGcU6GBkO0O7Ne1/NXbNmekViXHV990Vlb71CrYOTbKdeDgkr37+on5gfK1h0VFiMOHF5Enc62MG+P2KT59XAHW93v1K7v3ou0xuvU9u+7YnDOECNQzWTXKJbLnuz9GrFMPjQhvwy/gpRwIA96qd+DOyLPelSGhrE/D+0Nza1ddMdlRONjKbSAsDUxuq8zOvmxiWR6wVAt9omvxFlHltfGIDIeeVRw/DwsLC7zR5A1mNVGsuF3/ruVTbtmcXRg+oItmjumXvp4XcP0lx+ccNLyor23tK6I3hkBl/kr/RIcgL4uN05BHYwMObskdEBQmeHyY1LOyOz1ZDSdeeSbStSowkKvWacHWVwwfMTU0llR8523YuOmz6TPn/jyvsNj6foqPixux19Djjzm8Q/t2em66nw9EaZmqB0o/eVL5FavWfPi/aX/9vaS0rIwnkJSYOPqAEcccOS41JdmZRIboeVIrMgkYk3LljLq6G7D5ejRZpX+WLX/trQ+Wr1xL/Pi42LGj9z/lhKOTk5NqwEcVIT1UafOWrZ9O+2rOT/Owp2I2Haz2HLL7KSce3bFDe1tkdUn+tgkGdSt0D5n06NZlt949ak4SHh7Wvp3ng9gWE0grKipXrl49dfrXf/69uKi4pLqqOjoqqmePLicfd+TgQQPkwQy2VLVegi17UWB49v7Hny9Y9E9pKZqAsPj4uCMOHX3sUYehebM9LGeGVIxU38ye8+En03LzCqpd1Qnx8UMH9p9w0jFdOncM1s2c+TR+iI9TGr9sWSLY4WT/9mw1vPJdMfs0j8YGzcbu7aWEbq8hU50bsoRl2e128HunjCberrKiSmzMEuVeoof0u7S1q2tkbQvLxT9bPO2KShGnbRIRlp0i3Yj3hA4nXegvtsxV/QLpuRdf/dpbH6oQ5YmOjpo59Z0D9x+hQnRPYWFhu57Dit00qofjHzVyxKwvPtCrxFM78sSzp381yxaTSz56Nvz7e4f2meoWlvgHjT/l598CGHfywv/07afsAKMiKw9FrF6zbvYPP90x6bF16zfopfviWD5LO+d011x2/sOTbrWlIs9l/66c+sXM+x99JieQwTsRRFjgz1yW2U2647qbrr1clvX8y2/+35U3+0QVrQbPPHrP/11wlgpgq6LRh5/882+oIv3cfXdcf+M1l1DDoqLiH+b8csX1d/y7YpWMQTVkzeG1u2+95tyJEzLS2/gl9r8g/ubNW7/69rs7739izZp1/jetqxrbJQ4es/+Xn75tw8qZiQyZ9uU3x034j9OSkn57/dX/N+n264MllOGUYiuIum3atOXPvxe98sZ78LszZ5kQOr7h6otPO+W4Ht261lyEukvOfy/659vZP97z4OTsnFxbuUQjwsnHH3XZxefuvecQoFYJlYezOxcsXPz62x8+99Lr5e63myR6Prv16XXfnTeMO3gUvK9SNR+PJlE2RaUASxYrPW7shMhnn2Hvi8N6V28cewXZu6BzuiirFCVlFrlDqV5B3h6z0a5R7nTJsKrE2BMbLaKjAlM89eEbBV6SrSwvEAWrRWo/GooUtmvpbcIRgANppRipwhx7BlkhgSITbP3ncPSHjz/94vLrbtu4aYu8qTqMM64jxAqAdGzhCMgMGC9OeWvb9izbLb/LQPUkgrtRvqrSSuspOrqoTgEqWyLTflsT5v/1NxFyc/PGn3j2r7/Nr/T/MpCRGSFuuO2+H3/67cM3X2CQVhnqHmK+88GnN995/9p1G21F6NEC4m9FQLZwf036Ra7XBYjQ/IAIBMsP4ebam+/5/Iuv123YhIASLBrhfJrcevfDz774+iP33XbqSbVbMeXl5Z96zqW//DYffpfZBgTn/Y+nTp0+86jxh7z50pO2b1DGm/P+79rPps1kiYBeMT2fpcuWn3zmRaMP2PedV59pmxF0CYWevDH99negMcuWMCmwMLDxlF60wVcNeLMGR79En5OWKBLcS41qiNlot6CVuGiRliTiYgSzrMEcLO/jNZcoXCMv6e4AUqc3JFgJzTHcwYaykgGDedsfePTpk868UFF8PVrkFRY8SfPzCy6/7o77Hn6qFooPXlLAqgaPXvudP/5aiAg/dN9xc3/+zUbxtsSQ4KNPPq/eF/0u787jT7808fwr1qzdEDCCHjmI3wZVkFg7Ifjl197tvNtwiHvNug01U7wqnC7B9kFQcw2N5daPP/06+rATZ8ycpShe5eD0lJSWzv5+7oKF/+i36CfjT5j45rsf2yhejyP9yGffzP7xgEOPX7Z8pfNu04YEp6GdXy/JZeo5xcfHe9iN2VflLDZsiY4BIML7IYXwgyzvloDS0jzHYAGLQqYltr/2Ns2YOfv2ex/dgSCQ1aRHnnr+pde931C116ERYqxctXbcsWewa3GtZVF/AFmy1HuijjcB4ag4brhtUrAZAm/E5viXym/PysrKzsFTp/oVFBSedf6VK1evDZiK3H6f/9fRJ52DZj/EnCMjIx67/45hQ307f/Ad0G/Y6GBbFQUsd+myFRddcWMwdVPAJI0Q6CWaRijKUYREH2ZnAMd5BViXKN3mi1uDOOyLtGv6+ErxKvBFiUcjQUvoInwzqiHQC8sOayNQz5j53YqVgV+PsvKyqqp6bk6yw6ooBDLpqWdfgnbFmadCxnmr5hDU+i9NeTvgO69ADni35mwbeJcS+YALMRN4fNqMrwf066PHLyoquvnOBwJiJaPVGzG9lJ3kp26nnXwcgvzaddoXfGiFMWF+0+33vfXK0zYdC6n/WfrvqWdfmpObF1pOVqxjjzr8uGMO13vC1TfdzbRNXbvEdz/8/Oqb7//n7NNUVqHXYSfFbEqWp0kKQTywj9VIRvQq74QqlztIV2jl3Kwc7YpAwepWUiHLV/gWT/G6BpwC2lHVx9LgwceeqaELNrlISGdgcq+wyIeJajvVZt546gevMFd51Mnnzv/zb0+3UTH8PUArHXmijg/45Y51xGEHH/jGy09ZO7Udc8bCxUu9iQL8bdr+SCu+n/PLtVdcpD++9//3uZqw1WuMnn3QwH5T3381PT0NrfG0L7/V7zr8CirHnToGYCHD0/HpIx3JMZjRezgGKuecefLd9z9B6xxxawn48afft27L6tSxvR4P3cv5l16/YtVqPbBmf98+vd5//TkdVXb6m/LGe8GqhJ1IJIf/MBXr2MmHDnnBZTccf8wR6W2ay/HUTczywKpwVB5RrUlwDe97YWLyB2lZeeH7DSw9ZJ+iGtX8NfUEl7XVcOwXPyXEx7huPCO7wW87U3Y0k+ZZPZv/VUMlJvziaqpQA+7VzIwNyHjHJKXhv/7+R8BKjtx3+GcfvMK6CtwPX310wukXTHeQV0py0qMP3CGrMmj3fhJGGPzTaV8668fd886a8NwT9zNPy/5iX3/+7qhxJy79d4UtZkxMzBMP3hkVbe2AtOceg213d8glNcG1b5dZUVm5fXuW73Xwz33RkmXcIqYMxo9pYMDIw/ca+tWnb2OCScz3Xn/+2AnnfT3rB//MLCHq/rtuzshoQ3ZwpcrWFi30S57ay6+988ln04MmCROXXHDOlZeer0e49vKL3vto6j9uZRR1wJTo9FOO2X1Af6s+LjH3l9/eePsjYNGTSP+Wrdv+WrCoY4d2quZAwTzHvD+tOe2AjpjDhg46+4yTYOotm7c89szLaGaefmySyoFU27Oyr7j+9oCoUtZN11w2fM8hjJ3LV67+dOqM/77yli0mfQl942knH6vnGbAyjRPYlCwPBPqb7DSHsCCo8+hux217fsSbM5L5Tpg2J/H+19s8esXWgd3LWdNkjxf8uqIqbNn6qNv+m7F6E4oUvj/Cjh9b2Lejd644eMLa7vBmearheWX9E9B1AmPiH61FXq0KZAhIh7nuyoswaZdN5i09/ujDnSzPlr/HjD/UZnS4PSunsCDAxwFZkYnCObNtxoXnnXH1jXfZUMU8Ztwho0K33rMlr/USQ/WjDj/4jZeeTEiwTPGwlz/noqtt3CEzQXRlx9DExAR5WVRcHFDXAVZHH3GopHhiki0mm06WR7qAsA4atb/MbYf8oiepWVWS7diNkurdcdNVZ194da8e3W69/tIJJx0HMygLdCT93Xr1uPmuh3S6kFUlZObsOYePO0jVHNBuu+eRUmVgrW64PfSZF556gK2HuJL8c+bpJzO5evCYkXrEuT//vm79Jj1E+ll2MO2j14cO3l1e9u7ZfdT+I/5etHTOz34rn6kVE7+wvDOHJgkJb5JSZaF6JwZxnBXOT7TnNbYu6/4RZ6UK4gpLwi9+qP2FD7V7a2YSGxTXnDcETJwvf024+JHMc+/tsGazRfFu58K8P0gJIQeTgbIYwx/p29RXdW7yqqWKIZe2a0Wk1cytOesMMt38beo7d+rg6TZ+scOQ7/wChIAZAz4znmnnzh31yD26dXbmiRZr27ZsPdoO9EM9zzw26b3Xn5MUT86nn3Jc/769ndXgFh8lWdnZqmOUl6E0CCDkErNf3956Jfv6X8pb5LNm7Xo9WpP4aekR48bO+OTNX76bCsVzKd8CqodjDL768gsZAJx1I+avv83TwxctWfrbvABrMohD5Htuv45pADw4Qsi5a+eON197qZ4DJc789nunKoY4V136nyGDBuiR4+Jijzh0jMxND8d0Sr9sWn8Ty/I0nnEPWIHJO1CHiWhNn1XDFr6hIZccX4XkXuzdUgxqXbgyhn9PfdDm/KNzB/cr7Z5RyV4I3kUwKFLYajh85Zao5Wujn/0oNb+QNZl+/ICpZPvUmkx6Q6uXb/N8K35chkwFFDrLh5pVi4vHy+NsU1V1dUGhnzzOsavOaIRUOiaQo4MewRpm20w/WJ6sdQxYVsMDU5ITDxq1nz6FSB/Yd59hi//515k5PcRnc4x4gGlIEAuF3Fw/+25bM1XOoKr8TehJTmLV8b5UgAZCBWjV167blJubM/eXeZ98/uXqNeu9/GCv48bNWyWByBssoLPH8F4P2r3v1Zeer77bvMEB/rI0wRkaEx3dsWOHr2f/6P0Cd0cJYxFkgFGWsVOvlTO3xgxpSpaX7YTfwZ1HyNIP5mSsITZOW7DOidgNc1FRbFhW/vcK+97FPJpnPk7FUDM9pYodfznVIyHWVVwWxjFSVS6RlRtRXmGN0DaKpy7ET6tpZ+PQqsvXgBrAGFkSe8rvBJaeciCiFA3oJaH0yNDK25Vi0XzWwfLVbK+0yzV9xrf77bOXCmcqUvl1T5fOnfRL/JkZ6fCh0xAFkH+f99fwYUNU/C9mziJQXUoPDyLJqySx3doxl27RUs+qS6fO+mUwf2JiYvvMthjwOSN8P/cXdB2qL330yTRnHO6mt0l1hjdJCLDzgJ549qXX3/pw67bt2Tl5zudlqxhJUNAxCco2hNxyDw9raJTzCXL3+KOPkGjYMrFdUiiTH7ZALplrveyaW53hlOUsLi+/EHFBfZw5UzVmSBNrbCQ68te3h0aC1r/ZM6Bhjh0o9xscWOKDWGHarTkRG7ZGbsmKXLUhavP2yA3bIvnl8BDHe+epx579SpmJbaijXZpsGJbU3S3EeAR5CUiwztrQopt9epq/34i9nA+A8EcmP8/aE9mCb7+b87/PZkis9Da1bdumT68eegh+3reJp50UME+WrS9ZaknNcMTb7//vrfc+saXlMj4uHu2QM3znhThXDgcsiwmDs84I3K4vvvz208+/lPjM+em3G26/35kDgOzebzdneCOHUMktW7ZNfualdj2G3njb/Zg5Mf1QK8XLSrp1AZ5RmSfI8MCvs/58HvV29ApnNEI2bNoccKaXW+TsdM4eSExUfEyZBLwVsNCdGtiUsrx85RQQXLpDXCJZMwdmtwDo1iFb1QmU4f1LpnyejGxecyq7/BYoNuqaA4aU+H2yBYpWexjfDqpRUYmuxG7WZ0OYpSikG9Ej3VDUnk09YnDu63+ffGCPwQMDpi0uKRl75IRgk1cBk+zwQNrO/lxXXHen03IfJTRrEZkEo9DiklJdd6GqcchBBzq1XuT55MN3v/fhp4h+Kqb0sMnJniMPx4qGrogJIPjbIpD2hGMOS5YbptruNYPLMyec8OCjzzrtguC7kydezIZcdC20+YiitsrSrsED+4XIfba0NV+Sc40R7HcxlRk84tAaLItqzM13kydYVmpvprxNlRjpa6uYFTc/z95DfAWE7KMgvh1DKS7kLOsfsSlZnlrrKHjpPkzEd7S27pLbUpZWWmyI3mZrobV7e0mliAoX8dEigV0EtLM4akSgZ4eKzLSq9Vt3QGNR8Q/sVWbvpDWWLgrKRG6pVfnyahHj3v+gbYIoR03jTRbXISzKs8mRBMQLhR8+3tgN/UsRPXt0H+K1E7Blh8rISZG2OI1wia3xl5++edIZFzqtNfg8lztGBawGw+S5E08JqOliB5h7b7/+8usCWMjxcR1MHU8pTNA9eO8tel8NWHRTBfIR/Mxj9x510jnYidvqwBRiXl6FLVBdogp/fvIDAbFScerqAaVRB+zLQOu2owicev8Re+o32BJg7PhTtm3brgfqfvJUb4Qe7vQTMzzILAWRQ1wIEnwKx1lg0JC42JjkpKDbmgZNtnNu7ADi21EVk59CVp+LaysiYjwsj2ajqFws3y7KvVMcbDac7+7NbFfZl5ia0gkhjCFBcbC1k5TlUhKqTxlb8Og72qSuvCEtenj8zNd5Q8gOm3pSOkUCAg8YUtylLQOPNzZ/KVFdEkOXYtg1c3m2yNMmDKl8bonYmCdSoHVvsnTsrz2tAAQQkN0aD50bv1bYjvGSZbBs3UXvmFIakgvVwLzv3juuv+bGu1niGGJWfKY8et9tY0eNDBifPC+58OytWdkPPPJUMLsUZ0Lmih6455ZmflT3QaNHvvv686dMvDD0jzAmbS8+/6x9hg9zNrkhIYC8797DbnLvshlKPjDvhZfdtH7DpoCRAZ+9l089+dgr/++8iRdc+YtjR09bKkoPdkQXBfFxE8oL1SZtB0xUIKbwHtuq11SXTczyaojGg0jCd2VCQoKI6yAik0V5rgUKQLFDL3TpdEVlYsEm0aetSHRvForIvJnNHUvdZwSGWcJ+apzokCLJ9IQxBTN+Tli0ym9bUR7m/7nEQe5x4T/hYpW7tBNc4nqXWCrEF2HiPet4QZ/rkFF541nZipytG9uLRFaRJa1bo0uYSIwRbeJFZqJ1C53Msu2CSjodjcq3dkj3uDRYngaGIXlJwUr2xVB6pDeLZveXygdUp4ReUd7Y888+7YOPp87+4edaUxGZfZBeeubhU044qobIRLv+yotYybJg4ZIaoslbRO63W+8nHrrTLZnWGr0pI1DVIw87CAN5NvCqtR5EbpOW8uA9t5xz5im1Rt7ZEb765rvvfpwbsJRxB4++/qqLD9hvb5hBioABo+mBvD6dO1rGtXQ/PRw/IT//Ov+i8860hTsvWWkBPtnZbv7RbpPtVZdd0H+33lpYUC8LzeS7HDRGI95oSpbXnwR+HqRHVxCTJtIGiOK1Hhx0irfIUIPHYtKtYvcOFrmvzPLd4hlz3h7/UJUg74eHcaLTJSflXPl4ptLOdxdicrXAFEPmd79LTOQUECHOdllydX/MjV2C5/lomJCW23D4eUfnJcV4lbbUZFOB2JDjqw2FUg3+8f2RmSyWbGNW3ncXn63y8l5YpLBY3qoFzQcHxfWE0LFkrGb7Gxfvs/S3VZL5tK6arQtqltIgOlNbQnnJ5Btbt3/3o8+KBjSQ1HRxlReJla7tMtuOGbX/w5NuqXV3b1Y5HnL0qSji9RIRGPUBiXNH0lKTWeI48fSTrrrkP81Bf6XXNqCfz51Lrrz5g/99rt9lpgG7NV9IWFhKUiLtQvDni4e7vltN52OjzYCFw5LPPj6pp9dGPsQXgWh9+/QMmCGB7B68afOWGs5RkQnJZOig3Znbt+XDu8m2NqyUDrEytuRNeNk0LA9eEik80vE9xdoQ7xsVJvqcJdZ/KfwN1S1JuVOqwARyba4lKUuHlczizZawH5APOQl2bY7obp29sNdupdefmX3PK+lEhMQfrxZtNeB7u8Rz6HaEaO8NJNrRLsHy8FvCRKlLnDU+74gRRT7W3VzkR/HeVNZfFDLZxf6HRrH2JsU663ULx39rUrwVO1ykUR23Lzwco2mggLwkLIx8ACWxknGa1S+V5IM6WJXYzI/NAKREQ8xrbrrHRq/BEhJO/Jdefef1dz7Eo6KxMJ1dxWF59yEnrpiYWAg6s236bn16xsbE1IoSWd153+O/zftLZYjnhGPHX37xuUy6opknQlxsHANJh3aZfXr3QISsNU89q6byU+33P/r89Xc+0rEaOnjAU49OKiwsKi0rZbykXZFRkZiT9u/bhwY2k3ZRsdVuu3IbdFRv4IB+Pbp31cNrmIzRo40+YD9fj9FvoCvNy2M6+rP3p+g6GUBDrsJ0co8hPnuEsWNGOlmezN5673/HHXXYUUcc4p+x50ri30yw1WvYNCyvgAAXHJIUihpPYHW5yFkowqNFOOeHaBNH8GuXNLdyJkYkx4oV2y09iXSK8eUl07OV6Mq9z5ppW1Q3qXEo8I8dWZibH/78R2lX+FM86eD0od4Unmzdf0ZzujekM7bgsuM5ZcZ7p8wltuR5L9xCulWoV8znRqlWc3bA75cp5Eb5HIpiY/moBFGw0tqGM32IiEwEBEY7ZUMGOGSm4PKV2Gx8bdumB6wLNX/w8Wc7dmyHNTdK8Ceefunb7+fI5gSMbwtkI5Erb7hDf7EBYeigAQfuv48cAmX8OiED5b357ke2giaceBQ6ARVYpwxVqqb10FseeuJZ1WdkZcaOPmB/tzVqc+5CGEFW2F5ed+2pMysAONRQnvWIPv2K6+/86+/FoeDcvVuXcWNHoQgK2NmwKD1l4kW33nAFurioyEiMJtlC8pqb79lr2OBZ099HaKAI+gD7FmDHhb2ZrUSYin3t6ZajDhght9CgFOITzhbHX86c/e/K1a88+wjygS1h0142WW1AB0FV/np3lneJvOXi29NE4TJRWaibk1sYwbBqNgPG3C3T0tUoolcotk20dPGQ7NKtHumehBsLrIHBfRbOxMPyDxxY2v3BdqI43FKh1ObCol1XX7JNDOSgPi3q9kLrk0K53dpaZj/F5eLfbSrM5+mT4aF4ghgMyEiNQISU54iZ461RLb6r2Pt+0e14Og0SPf0GfJQgTMRmSEBUr0/P7tQtoEM9cvYFV0lSDvjKBUwlA3+b/5dO8QSSA8sas7NzMjLSnVBwl28gvgWdt2SGRJj5zWxW2tgKvfu+Jw46cH8UsbZwWWLNeTqTNH4I7Vq5arXc50sv/Y13Prrw3NP79O7pBERixXPB6Uka38+q3WDfglD8vgcd075dO2q7efOW9Rs3hlg92nvHzVfN+n4ub1DAJHxi/jDn18zMdA4zyy8ozM3Lp4iffpn34GPP3XrD5RKuvYYN6d+v9/w/F3LLlgk6n5MnXoTZVUZGRueO7Zjw37Ite8uWrRs2bsZAnuQTTjj6iHEH2VI17WXTsDzY6fC5keUQ15nimxNFZRBjVXQy5VUiPsqDF4yPaA+VqxWk3ID9u7ax1OoxEaJHulid5YmMOhgTHfcp4Uj0vbqWi/s2is9TxMJYsT5aRNgfpJWqOkxkVIpBJWJ8XnSmRujcYmnsFm3teEai9a2Ai7K+GCwTGuUojMlhd7meMFQ/jn5jjWdVKPSXie8min1yRN/zrMyiotBLIFxIZX2Tv5CqTTbP7gP6YUvAeG0LV5eMVcofuqeYrWsdjpO42/cahtUz02PybZRRwIqFqR3bp+8xZFDnTp2wAd97rz1sqYmfV1jsBH/hkqXteu6RlJSYlpJiDcBeh1ojKTGxW+d25NmhQ3u29ELX0TyfQlGxdb6Yt+Kev8i//fccHR+f4Db28LE5Rtw0tmO79EEDB/Ts3o1G7b3X0KaSPenbaOE+m/aVs/6EsEkAG7E5b9la6rxkq5nDDh7Nub7B0rJ0wLYZGTGffO7lk084ki2IyZCnP+X5x8ccfhLHmzjzp0ujaOLfvD88HUYvaPKzLx869sCmgtRZW0Iam+WBQ76feHDISryiVggi7dzLg1K8rPuGXJHWwfeiYkWDEL1ki69h6Qlei0QhMhLE5nyP5oSRAEV5R7TuXpdSJU7PFpVhlkT/XZKYlSjyIiyDSowo2b1g72IxLl+0qQo8AGSVYHnryYiXS1rUcM0TT4r1Y3kGgCRtjovIG+0T994Kuf9WFok5F4k2A0XbfcCErQ6YPcMDuYCVVYJGQ34Jm+5irz0GIwhv354dYhVogmxLzfE7BVloSofhVD/+BUz+2fRvCMcuvlvXLtM/fp39rRRiFNqjayf7h5T7EwFdB7NqAY/5/vV38cEnX5AJev8R++w5/aPX0KcFLLoJA9tnZtBDnKMpZ1IXuJ2zbvOEmPrFt/Sm6OiYHt26fP/VR011WunJx42/677HgnWJYOHOFukhKFtee+HxbgP2zfc/qVWP4/RD6E8//+rkh++SY/nAAX1vv+mqK6+/o4Y6OG8R8s2sH9kGZ9TIEarvOctq5BDfIN84BcuXXKJDv8TjxhS78jcsYVY5pHKO6rYJKKhEmErVA5mPhdmVi9EGLYtzNYbFHoZltDYXyTrbKnFUrnhsvXh5jXh1jfX75HpxRrbAKD6gjE/p2Zq0zkiDrka5KK0ChHfSxhXisD7FppQnN+R9GutzlWLBo3KHfbCSby8o4ZpPp/FV1i31vPT0w95pc/2O3U/9jz/m8CMOG2u/Eeh6EOch9eoe6E7tYah6lq9YNWz/w5567hVGBZmA0g8cuW/vnvXJE/BZcDTruznd+o/46tvva69BI8agXe3btxs7emQ9ykRyQIz4Z9nyjr33fOaFV2lmPTJpYJK+u/W+5IKzGpiJM3lqaso3n78j1frOuwFDaP4LU9787sef5F2AveCc0zHlrKtUXlVdde7FV9f7YOGAdWtgYGOzvKwugELxUBjOHeISi//ra0lyvBjSUezRSezR0eJQXYDFRkUuiVKxu6b59PVlXhFb3kVHrxx6g42amkWF19VD6fo25ZTu+8p3K3NkhrSrV4Zg5zPlCtHaYwvkVV9wh2GsXzuxZ2erpR2SVUSR/Yc1LeGW3BEzwQon7yqPL3Iz8GFyML427uZB773n0JefeWT0yH1CqTL7p8+d9RkmkqFEdsYBKPYuvvWeh/UpO+pw+w1XIOk744cYghrkpDMuYG4gxPiNE412Tbrj+oacTEQ3u+K6O9izt3EqrJcCmd583WW2Mw71CNLPfpC3XH856hTiO+8GDMG+a8EvX2ErFXoSFKRF2i6n7IB2/103TbrjxjptOiZ1fWjGAtaqSQKbhuVpKtDzKnpYvrJUFK9xm6q4QWBhkXyWiMYD2lmq7XivVA7fMcOpS9PsKgmfyvg5RT59DjkhaOuSfg7WjQ5xvk6oV7jESu0NJ3/+6Q4ql449DPQPC2YFMOdXnyH0gJ4ZYmgnkRxjhfEvM8m3iLeiUFR7hitkZPUlDlyh91d3LYgewLlVS3ql7X6wDJDMHWqP6r7mIU5+6K5Dx44KljNKOc6I4BgmJKzd+/eVOjpbEc6c26Smvv3KU0Rz3goxBKJ/9sXX9KHx9AnHv/HiZLZ2CTEHZ7SCgqLHnnpRD7c1RF36Df/uBODKXxVBeQLiFuQhWMF66dKPdpvN2es9KJIJ3ezSq2+F7p2ZBwtR9dc97sgBahgsE8I5Hou99TnokXyc0QgcuHu/D99+4a5brj3j1OOJoBfn9jsTWSHcykhP/3HmJ089em+H9plcBo7njonAfu7ECT/PmnrkOL9vTVJde8WFs7/44MxTT5B51pAJg8QZE46b+sFr8+fMaJMWYD4/WNqdHa5pGHZ2Ue78eeXkWyc9HpbHaDIqVaCVlq4YE0nPvi5Wn06JtSxk1uWIbdCfe/aSadWYTB/DchflDFI2JJ5dKtK1d7hzqsgr8dg4op1fniX6t/Pp7uva5E15olIzkWyX7PuMICu2qZGbGURHCspVnYq9dxZt8gw/NIfa9kr3cbqsQ1m1b30v9jbexHQyqdcCLg9WodWZhOymPW7sgc7oSBlpqf6qJC1SRGTkIWNGWpsKeL4ffPc4RNR34e/DfG3aR6/x1f/Sq++iNi8stPb8QoWdnJywW+9ez02+v1OH9vI1Y53L+HFj9JVN5NSmTWpcnHcg9+bM7upX33y37C3eMOuv+21V4FohzjhWqNt99bVlUSeLJuDLr2eff9kNzp3WbXnWkCG3Zv/4E9N3SJdk2KVTB0B2xqdEzDBkHeQvj2+f4UOTk+K9H2a+m6mpyXL/NRVE8l49u447+EDnU6BrOEcplvKefObF7PmlcpAed7vw+uByVlXGJHzRP8uysnPbZWbYMgl42TajzaEHHeAcFdhKsx6qNqzjGaXumPTItBnf5jOQuufeExPj4cqJp5146YXnyC+ws08/ac5Pv/phwiL3+PhgO+xTc5ZT/N/5E0mIEe0rb7yfk5PDZDVr7HkKCN0JCbFJiUl8Ijxw9030YdVP9CZjXIDJzWsvPIFczxQChw0WUsNiXhFrzgz7wISEOM6nPPGYw9HwIMfU6T3VC9p5/pCmwnZg8XQmnGQussVv2agC+Q/nieVTPAWhqu7ZVqT6v/aQDmtZ2dBGGthiY9OLON6psJIKsWizlQ/i/+7t/DTda3LEVm2yrlOa6JhUnxYVYp3JXgtelUtanOit6RMqqsU/WwXGPLxYfFtwVzqM6Je4w7mkzt3SrM8L78vniVNQbpn/K9PMzAPEYTNEpDXOFRUV0WkQNPjFBeyFnkwC/QFeZ3CImTjThpKQvr9163YM1FCIJ8THsYKRrRypua0atsydOX/x1azTzrmUZSwqIXHYhqxNasqSpcty8wrKWRLhdszErli5ioUtKqbuoeiS7cutPibEC1Pevu6We/SZW2p43503knzpsuUFRSVywQPdMysrZ/WaddXeLyo9Q/zD9hiEcIcFjgq3NYdwZ4t2XuQf5v464ayLN27ymSHQ6qsuPZ9es2TJ0uzcfIkV8hHj74qVqysqvF+cqk5uDwz1+w/TAx7J5B/Rd1WnhvuSBffB71u2bSsqYttXV0pKUmbbtnCxDUy9UNut4BlbdxiTePo5efkM81AQJ9WkJielpqbWSYlXVlaem0sHtLaPB2e6EDJKYkJCXdX3NVd1x95tbJan9uArHX4emHultUvkLBKfDhPV6l0Ns6Yu0Vb7pBB3w5HWV2YLVrTi0Hv0yRSJXjXrhjxr0SkugvAM39Qrho+LNwn2tpSOIaRve5FQx4+Y0ipLHlcUj5oIlXqct+jSastqs8A9K8uEcN9Mj4zP4qnFGz3DEvaUPdpYy3d1x6dJfplYnSN8JBUmhtwm9ryLWICD0EE/Rm+Dk1xZp26tF7UL+bF0HjHmaNuZagP67fbnT18Bg3zJFQ54SktLr7rhrv++8qazjQh6ORsWoSNCQT/8wPG2weCYI8d98MbzYGvLk3xYlnX4cWfOD3RI9PA9h8764v1ad1NwVmZnhGzbljXykOPY1lHPvGf3rr99P51PBGe7mEZm34jX3/5Qjy/9rAidP3dGty6dnbdMyC6NgF3IaszG8MnD62eViMH4z1cLlz536rKMDv/eLBDSdYeym31p0GLjEOqXbbEEfOmYa5XGKphVLNum0XqY6J7uU62gt1m6WRR7Sd+TuMY/YRGWrK0oHiGyfbKP4qFy9lOTFE822OnL1VvI0VRPfnnI5a82imcHmxXZYvlWjeJJ7xLrp4sK6+NDEpkkd1k/RW3ysqX+fjN7jj5rKps5ZFB/dE2g4R7yLI90YIJqaOR+wwOCM2TwAIQspIqp07+yqReIj26BHkg+tjwJ4ZjvQbv3D5gnWhqbgqWpHgQk/tfCxRydp1eAOrdrl5mcnBiwXQxOTIPr8ZUfRZC+9F+FG8+ujkBjszz9Ujl6ofstcoklz4pNX9sXu0Km7Pa1eItlG8P+X8rBoV1TrQWueKBsZjWlnB4dYZGvdDCyvnkZ9NpW09KQCtYu0fJUmTs9FI08bk0VeB2Tw7pJDMaRShJvlyTYwwCHPmHxdkuBg8Nyf2B7PyWSK1xsKxXz1opcpoutKH4ua56Yd7sMwWQeblKI4fGL2UIv5v7yG7xsa9znM76ZMXO2DJffgtJfWVnFasaHHn/OCQ6CP5Nm9DHchk3W6aB6nlx+/sU3v8//SwbKPGUc1E3vffTZtBlf25IQk6xOPuEofvWsmtDP6h7nIuHF/yxjTZCsFU2QTeMSP5aCL0x5y1lhWjThxKPRPDhvmZBdHYE6Ki4a1lz5zqg3x3vAqUus+dSSYaXjL28Q77gcgHjbWQzF+qZemSLFa9DCO8bmX9HhAp07OhysbjDFQRXTPsli/G0FVmbsCunN0sqwW6q1/BUzG+ng3382i4EdrC0HanAUtBoFkUbx6GrQresu1m3XTxF8lygD+fU5HGVkxeKzwxa/PMwqusytdJL50FhsLtHeeKjDJRY+JQZdKxI6cR91BHM7gIZrPuQiK76TfpnRcuaMwcxRJ52NGclhh44eN2b/pKQEjoqa/eOvH30yHQNHm5wuk3ft0pnNePEDXbS+lMGbO6biLKPv2qXTSccdufewgcwA5+YVTvtq9oyZs3Jy8uQo4o3r+Tti72EnH3+ULbAJL2NjvS+FVgn2ljjpjIv4HGGp/djR+6YmJ3JU1A8/zfvo0+mo79UaAi2F6NSx/aQ7bmglHUxveGvwN7ZenveNTsYvr5D8WLb4/d2uoni9BTesKqcuIWgOD8E8BrsaKchzi/0DEKJ140W2E1iXaxE9WnK5yzwJ2QiB6b4oD2X6niLhiPA6ZWekiB5BrU2sQQJFv9T1y1xQvPTO8OlqVNZM2/F9oEwnufxjg0XcWNqgR1IVqQoTG/LFtjyP8ocWcZdGYSDEdwntZR2vR94ME4dOF50PowRUyai2mL1Aq8BL2Brew8VLlg3db5xNh67AliC4xzwLLTzqlu5hLvHNlyYfMW4s8Ynz4pS3L77ypoDETSp3nlZuPJMa8mSBKPaggwf21wtqWv+vv/958FETGAIDVkNhJe8Gw4po77/x/AnHhHT4dcCCTGBzRqBGSXYnVNz9clpvnfqKtAphFxfpIDs5pQkzwtqIxoM7WuIw4bx8SOLw4DbNKB6KRBmC4bmifhKyiY2T4skflQ5mlLpyfHu+ZXkZzJVV+BnnyBFIzbjqqRDwFcUTzqW1pKuztfmBovi8UvHHOrElx6J4mpMSJ4Z1tsR87ES5xNEEPkeUw2re7VArq+lBdbNlewb0362GxZyy87h/+QlC8SnJb738lKR4sILFjjx8LPu3BMNN5eZejh04T8y6mXQdtHtQc9Jgme/UcOxld++/W7Ai3O2yVphLFzAaxkKfvf/qiceOB6WAEUzgro6ARiuN1RQ6nCzK16uivToQGJANZ3QHA0KFsLNcyEparFn+3e7bpIyuCauG3j/Za16yqlWKyzoJJJh+Hrlb2tYREf6lDmqvNL2GAf16lRDzV+WJ5ds8Ew9I7pgGsdTLVw13Fhw7pXZhdWEU3UFmzKcPDr/ETaEXsNgWE8gyq6GDd/f1kNAaJuMfPf7QLz97+7BDRuvJOTvi66nvcNCPHhhKrsRnlL3oPxN/nPkxdj51TR5KEQ2Jg9rzvdeeO2TMAXWtGPFxhx0y5uvP3xl/2EENqYNJ28wRiLjzzjsbrYqKp/DQw6QKwip9yy8i929PNThrCcpmsatOghjPILYj7RZVWPyOigaJnllNXfgNsRlkReZKQQ+Pc0o4Kn6bY7MENPLKMa1KcfVzq3JFVr6l/2G1VJdU0a2NJfjrwxIa+TzsKTlr0CtFxqaLve6zDr/lO4dNp9ynaDFZzaX8rV9FdqFU6elpnFeHtn3T5q2FRdYaq2CVpyNJWFjOwxLQKc89et2VF3fp3FGG66kg+hOOPWLFqrXoN7DLlp1Qj6D8Mi1fUZ06tBu2x+B3X33m/HNOY1M2Z54qSRN6UlKSjzvmcGzAt27fTsvAKlg9ZThdiDVNLERiUehdt1wdEKsmbI4peocj0Hh6eflSSUUNv7zAGMB5OGvddPHVkX4nQ8VFC4gVjYciPtl0SDmnRKx1E2LnNGu6tX6OFUwMJ9J1SBOdHflwhCyrbaWDR1AcofCph2M2+O9N1kcDRkE0x5kJmhws/bHh8TK8VcioN0Wv0/kLaOw/DN3wfoKVdPWoxS6aBP1JcUuCBQAADURJREFUVnb2wsX/cMjUFzNnsS04ZzrpbeE4wH322uOQg0YORMvTu0fnTh1rXeFC31u3fuOSpcvn/fHX9C9n/Tr/T6x0VJ6MGFgTjh29//4jhrOwvk+vHhyhhziiIjRbD12FWWjateDvRTO+/u77Ob/YsIqLjWGjRI5MYS/l3r1Y6dlJLhZrti0yFdtRCDQey8saK5ZHROXlcfczl/hjkvjjdosKpZN/eeGQu5luZTtftOG68MtCU6xu0pNEfH1fP7WEihI5025QO/twgiEmx3ZLh7DPpGv9HG2hLL4DpIWlygT2Z7qVVrDRpmqvutvrTDHqNfTJkuUBCn6Xv8HENJW05XkAQTaKrxrO7asoryAkPCKcGemYaCalrXVSdYVF5kkqzrEiT2mMyAyIO0/fYsu6Ztvk4OtYcRYgCzUJASJetLjYWNUc5WnyCpsKNAICjWdJqfqfbBX9DBHV7XeJzd/5KB61BmY2LFjdnCeQc9lqGE0FFMlMLEob6TB/RPXREKdr2MtZeIUyxCfQWYyvyXfWBGm9HYMTRp/KccmCrLV5gjXcqJ6gL+aK+ShhGKOl6vNi+Xti+INSNY8sn5zsWQcAhq3w/VRNhoX1fQV8oNZ92lDlyVk/nEGistrVPapdYJUYmWDs33f1B7pD6t94LC/7n+J65bGaUbrV0xheV9aOSpvIlExRXGEdh41MLQ/bYxdiRHu2iKn7W+0AC7pVDgMem9pXv0s026VKWCdPmLWZAfud5bt1DjSBTwSmlNm8TGbfPU0s2OQtqlKUboHlAY19NvjuQZaXhbVOoq8T0CayQcAgoCPgmHXUb+5ovx+z65m7pxmtAIRo/VxsJG72fsEqURpKwvUYvHNad8OdXgrrZWw0zqU+r8u2OQ0fV5hOYGcFSfFkzjIutEB8JaiimVhWfmT8CM8HBPwObtIpSa3hAJgcDAIGgVaCQKOyvMQUqoKz+MVZIVgNpg7yycsoLmw8Lq0YOc4b7TY7lLHBb8OdvjYqKcqulCd/pn+Vg6B1BY4Kr5OHXRBoCEonPlYw8NdPmCIfdFPr83z5JXYWid24BKi8vDwpyEu4PKD5ohqfQcAgYBCoCYHG09hQCxgK2pIepmFRRFiqebi+x4li+ets/mLVlAhrsq3TU5HimX2VjjiIvQ3Rj3sycv/BUAflicpZP2lERYOO1+d6hGsU6FnFvvNdVZw6eVjbxV46SlpXaZmB2FggNmvnwbKL2YhHlCwvDTwUdHKAVKmNxyBgEDAI1IxAY8vyUhTlF/mUeUVJ+qLzIWLobT5xniqztwH7xa/KFhzB0XBtiY4Bowj73ij7az4OsJODat2jD4oSa5hhrzHkbt0qxvZ5oWcYut9G8Qw26/KsZuoUzzjQebzocpREg4HQs22ne4wMvSgT0yBgEDAISAQa25ISWsdBXvwiziOoelisukzMvVwsn6JtMe+uIRTP/CSTrlihsKC04Q6+5ltBd9Yo4iZgjwfTF/eJVHoc/Ajj7IXZ8CHHWtVVJVjpytkmFKQ7pPi2I8Whn4hoj1kO+8tzX9pQMi6qMVJPZPwGAYOAQaAGBJqG5aXVPFxPzbBQlnpnUVUmVn0kfrpUVKC+sNFfmLWeiC1oWFiE+byNHGton+0W3IreH56tn2NlExac9Sud4YEpXxZbYS7J2l3Wu9pdpLXetf+FIspjNwk+bEiJUgt8cPIDyJ7IXBsEDAIGgRoRaAKWpz5qbRQSPYtg2YtDap+tqhauEb/fJtZPE+X+ErdqBgb17PDObjB4oP4QBXzsc9gUQW5KrLIKyYOYrzEycwNwPeONTf3izIoIKIIgdPbC5CyU7cWihO3mtaxUkshE0X6M2ONW0Xa4UlsBERotYMFJlic6HpXIeAwCBgGDQCgINDbLyzpBYVJjg7iKn0DfbgdcVLutxf96QCx8VkRAi4GYkWhsdAPrwfUJUSI1QcRzRDhKdg65l4W4j/KAZLOLrE0RkKP9xOcwEZshSnM5CxJVvJVEV8VgPl/Nhu9Y2nAqSAdRuEK4tLOlKBfjS46cTU+0CkWDj7MKdZ9qwj7JzCVgM8PSVna15LuBcoOK/2Gi4yFin8dEch8R4bPqAROkeHKE1iXLG0HeAtk4g4BBoO4INDHLS66XpI/qBkaTqmerITAjm86veFtsmCm2zBXVfhuYBG5pmHtzSmubM/dCJ2javtxJpuPo1/PFvpNFVbl19l5Zjihn+0nvhsbhUSIqXsS0EdHJIpJNjyPEgsfEgkmiMpCdvlVimEX01JbhyhqSalUHuXdRzhguOowUvc8SaYP9Bhgh0MUDiFTRKIoHFh8ygRtvQg0CBgGDQAAEmoblIXfqIsmdX+WByPyEeqvCbkG4ZLNY/KRY+JxwwcXaVgQBWlRbUFi0GDFZ9LtAQNChu3XTxMzj3LaeQT4sQsqKEiNF9+PFXneLpF7OCsgDQwBBUjweOezhkS6kQkwkg4BBwCCgIdBkLA9tSXKH8XHS6kb6mW/E8MbBay5L7s76S2z+UWT/Kbb8IIrZ61FpWmomX7f4HNtW9D5D9D5TpO+hIWB5KdcWwiUV8AssWi+WviKWvyoKVrml7wBJ/OKTnGyJxWdB5j4ifbjI3NvSvFMNt35HRpZFcxqUBIFClRQv/bIm9sr4lWQuDAIGAYNAUASajOWpEbwGeSlBnkvF+3ggO2ZliYbHv/oQJ+oRlyhcKTZ/L9ZOE9kLRAVabDZ3rLAU6FLYt3QpLLlC2R0j0nqLfheKLkcIa18qH3czvSlzljWRNj8UR+lSiCac8YZRx0uylIudzGyx8BmRtcCtRCq3QnwlsncmC8049SlWpPYRnQ4RnQ4WKX0FWiDr08FXtCxXtpdqyDZKWpe/MoRfb9H+GJgrg4BBwCAQGgJNw/KybnCo9EB2eCTLS78KkRynpPsAjUIPjnq9qkRU5AtO0assFpje4yDWCI4HSRbRqSKKk/m8y2jdBUHo2PZIWlc0qjzUBCfLwgPjo0dSd61wCqWg8jzrH/p6q0Smgt0lUhaFRsRZ/2xfA+4cyZCsmFzFI1leJ3RuKWZXHlkT82sQMAgYBOqBQBOzvKROxekQn3KSAWmSDOESsVqeewDtEuhHuyE3XaqG0JCQghxkJvJXz4P85aUsnQgULWnXGVlPGNAvc5ODCpOrktaJKbOSlypzAvXwerc0YE1MoEHAINDaEGhKlldYK0qVdK9Inwg61+NXDFhYWJiRkQEzShZWvKnyVB6ZOQmZ20R+l5nLfNQvkfHzqyLLbGWI9PNLnPLy8qSkJFluzYXK+CSB1uF3lT8e6ZfJ5a8M5FflKeOoVhiPQcAgYBCoHwLNguVV1Z3cyi1F+tzlUsaBBAmHE/lF+xEfHy816eh2ZDQZE3rFIbkjiRMuyVQnVuVXOROi5yArIENkTWRM6D4hIYHMMQBV8cmfcHLglxGFjw9ZKElwsnR+lR+PqoB+V09lpTTOIGAQMAjUF4HmxfK0QhIcvzh5qXukH7aVHphRv0t8yZV6Qp09lV/3EFk5wslQ/hJoK45LnM71+OWooMYGGUJaMlG/pCKCyhyP7ogmuR6PcQYBg4BBYMci0OxYXjUPZsQf8JdAPVxFU2nxQKPE4VcGSo/OrSpEj6DnoIrQPfilkzHx60mU31kut1SJTg/5qCQqE+MxCBgEDAINR6D5sjxtU9ynyBSP9Ou/UrjWWZK78lJ6nKyqIitPDVCqsqRHFif9spL8qnxUuBLPVekqGiEysIZCzS2DgEHAILBDEGjWLK+3ULGn8si7XOIgTX5ViORQGU6gvORXelSIjF/rr8qZmNLPr/SQofSoW7KIgAWpWyRREWot3UQwCBgEDAINQcBHUg3JpanSIlZLulRUq9dEkamiV/1uPfzOUmSIKkjPU1UMD07GxKPHMX6DgEHAILCzEdi1WV6io0hWMimBOququzsKSr0U8pSXkr5lWbYIO6pck49BwCBgEKgHAi2B5evRbJPEIGAQMAi0EgRsW8S0klabZhoEDAIGgdaCgGH51vKkTTsNAgaB1omAYfnW+dxNqw0CBoHWgoBh+dbypE07DQIGgdaJgGH51vncTasNAgaB1oKAYfnW8qRNOw0CBoHWiYBh+db53E2rDQIGgdaCgGH51vKkTTsNAgaB1omAYfnW+dxNqw0CBoHWgoBh+dbypE07DQIGgdaJgGH51vncTasNAgaB1oKAYfnW8qRNOw0CBoHWiYBh+db53E2rDQIGgdaCgGH51vKkTTsNAgaB1omAYfnW+dxNqw0CBoHWgoBh+dbypE07DQIGgdaJgGH51vncTasNAgaB1oKAYfnW8qRNOw0CBoHWiYBh+db53E2rDQIGgdaCgGH51vKkTTsNAgaB1omAYfnW+dxNqw0CBoHWgoBh+dbypE07DQIGgdaJgGH51vncTasNAgaB1oKAYfnW8qRNOw0CBoHWiYBh+db53E2rDQIGgdaCgGH51vKkTTsNAgaB1omAYfnW+dxNqw0CBoHWgoBh+dbypE07DQIGgdaJgGH51vncTasNAgaB1oLA/wN8qA3nfRUbBwAAAABJRU5ErkJggg==;" parent="1" vertex="1">
          <mxGeometry x="650" y="-290" width="173" height="56.06" as="geometry" />
        </mxCell>
        <mxCell id="dwARR20L6FCNaaWJkSE--79" style="edgeStyle=orthogonalEdgeStyle;rounded=0;orthogonalLoop=1;jettySize=auto;html=1;exitX=1;exitY=0.5;exitDx=0;exitDy=0;entryX=-0.011;entryY=0.556;entryDx=0;entryDy=0;entryPerimeter=0;startArrow=classic;startFill=1;" parent="1" source="dwARR20L6FCNaaWJkSE--41" target="10" edge="1">
          <mxGeometry relative="1" as="geometry" />
        </mxCell>
        <mxCell id="dwARR20L6FCNaaWJkSE--81" value="REST APIs" style="edgeLabel;html=1;align=center;verticalAlign=middle;resizable=0;points=[];" parent="dwARR20L6FCNaaWJkSE--79" vertex="1" connectable="0">
          <mxGeometry x="-0.1759" y="2" relative="1" as="geometry">
            <mxPoint x="15" y="2" as="offset" />
          </mxGeometry>
        </mxCell>
      </root>
    </mxGraphModel>
  </diagram>
</mxfile>
